<?xml version="1.0" encoding="utf-8"?>
<!-- Generator: Adobe Illustrator 24.3.0, SVG Export Plug-In . SVG Version: 6.00 Build 0)  -->
<svg version="1.1" id="Layer_1" xmlns="http://www.w3.org/2000/svg" xmlns:xlink="http://www.w3.org/1999/xlink" width="271" height="100" x="0px" y="0px"
	 viewBox="0 0 527.1 203.9" style="enable-background:new 0 0 527.1 203.9;" xml:space="preserve">
<style type="text/css">
	.st0{fill:#242C30;}
	.st1{fill:#0C9FEB;}
	.st2{fill:#252D31;}
	.st3{fill:#252D30;}
	.st4{fill:#252C30;}
	.st5{fill:#1F67BE;}
	.st6{fill:#2067BE;}
	.st7{fill:#232B2F;}
	.st8{fill:#1E66BE;}
	.st9{fill:#1F66BE;}
	.st10{fill:#283034;}
	.st11{fill:#272F33;}
	.st12{fill:#262E32;}
	.st13{fill:#293034;}
	.st14{fill:#0D9FEB;}
	.st15{fill:#3D4447;}
	.st16{fill:#FDFDFE;}
</style>
<g>
	<path class="st0" d="M523.1,62.8c-0.2,0.1-0.5,0.3-0.7,0.3c-1.8,0-3.7,0-5.5,0c-0.3,0-0.8-0.3-0.9-0.5c-2.6-7.8-16.2-8.6-20.9-0.7
		c-3.2,5.3-3,13.1,0.6,18.1c2.7,3.7,6.4,5,10.8,4.8c4.1-0.2,7.4-1.8,9.4-5.6c0.2-0.5,0.4-0.9,0.7-1.5c2.2,0,4.4,0,6.7,0
		c0,0.2,0,0.5,0,0.7c-0.2,0.5-0.4,0.9-0.6,1.4c-2.5,6.5-7.3,10.1-14.1,10.8c-5.8,0.6-11.1-0.4-15.7-4.4c-4.1-3.6-6.2-8.2-6.6-13.6
		c-0.3-5.3,0.5-10.3,3.8-14.6c4.2-5.6,10-7.9,16.9-7.5c4.7,0.3,8.8,1.7,12.2,5.1C521,57.6,522.2,60.1,523.1,62.8z"/>
	<path class="st1" d="M4.1,104.2c0.6-2.4,1.6-4.5,3.5-6.1c3.2-2.7,7.9-3.2,11.5-1.1c3.9,2.3,5.8,6.5,4.9,10.8
		c-0.8,4.1-4.3,7.3-8.5,7.9c-5.1,0.7-9.9-2.5-11.2-7.4c-0.1-0.3-0.2-0.5-0.3-0.8C4.1,106.5,4.1,105.4,4.1,104.2z"/>
	<path class="st1" d="M101.1,5.5c2.6,0.7,4.7,2.1,5.8,4.7c1.3,3,1,5.9-1.1,8.4c-2.3,2.7-5.3,3.6-8.6,2.5c-3.2-1-5.1-3.2-5.5-6.6
		c-0.5-4.1,2-7.8,6-8.9c0.2-0.1,0.4-0.2,0.5-0.2C99.1,5.5,100.1,5.5,101.1,5.5z"/>
	<path class="st2" d="M250.8,64c0,8.6,0,17.2,0,25.9c-2.1,0-4.1,0-6.2,0c0-12.9,0-25.8,0-38.8c2.2,0,4.3,0,6.5,0
		c0.3,0,0.7,0.4,0.9,0.8c4.2,9.1,8.3,18.3,12.5,27.4c0.1,0.2,0.2,0.5,0.4,0.9c1.7-3.8,3.4-7.5,5.1-11.2c2.6-5.7,5.2-11.3,7.7-17
		c0.3-0.7,0.7-1,1.5-1c2,0.1,4,0,6.1,0c0,13,0,25.9,0,38.9c-2,0-4.1,0-6.2,0c0-8.7,0-17.3,0-25.9c-0.1,0-0.1,0-0.2,0
		c-1.2,2.8-2.5,5.6-3.7,8.5c-2.4,5.5-4.9,11.1-7.3,16.6c-0.3,0.7-0.7,1-1.4,0.9c-1.4-0.1-3.1,0.4-4.1-0.3c-1-0.6-1.2-2.3-1.8-3.6
		c-2.8-6.5-5.7-12.9-8.5-19.4c-0.4-0.9-0.7-1.9-1.1-2.9C250.9,63.9,250.8,64,250.8,64z"/>
	<path class="st2" d="M447.2,89.9c0-12.9,0-25.8,0-38.7c0.4,0,0.7-0.1,1.1-0.1c4.7,0,9.4,0,14,0c8,0,14.7,4.3,17.5,11.3
		c2.9,7.3,2.1,18-5.9,23.9c-2.9,2.2-6.2,3.4-9.8,3.5c-5.5,0.2-11,0.1-16.5,0.2C447.5,90,447.4,89.9,447.2,89.9z M453.5,56.8
		c0,9.2,0,18.2,0,27c3.7,0,7.3,0.3,10.9-0.1c5.3-0.6,8.9-4,10-9.2c0.4-2,0.5-4,0.3-6.1c-0.4-5.9-3.9-10.2-9.6-11.1
		C461.3,56.8,457.4,57,453.5,56.8z"/>
	<path class="st3" d="M327.7,90c-2.2,0-4.1,0-6.1,0c-0.4,0-0.9-0.4-1.1-0.8c-1.1-2.6-2.1-5.3-3.2-7.9c-0.1-0.3-0.6-0.8-1-0.8
		c-5.2,0-10.4,0-15.7,0c-1.1,2.8-2.2,5.6-3.2,8.5c-0.3,0.8-0.6,1-1.5,1c-1.9-0.1-3.8,0-5.9,0c0.7-1.7,1.3-3.4,2-5
		c4.4-11,8.7-21.9,13.1-32.9c0.3-0.8,0.7-1.1,1.6-1c1.6,0.1,3.1,0.1,4.7,0c0.7,0,1,0.2,1.3,0.9c4.7,12,9.5,24,14.2,36
		C327.2,88.6,327.4,89.2,327.7,90z M308.9,59.2c-2,5.3-4,10.4-6,15.6c4.1,0,8,0,12.1,0C313,69.6,311,64.5,308.9,59.2z"/>
	<path class="st4" d="M224.2,63.1c-2.2,0-4.3,0-6.4,0c-0.3,0-0.7-0.3-0.8-0.5c-2.3-5.6-7.6-6.8-12.4-6.1
		c-5.9,0.8-10.1,5.6-10.6,11.8c-0.4,4.1,0.2,8,2.6,11.5c2.6,3.7,6.3,5.1,10.7,5c4.7-0.2,8.2-2.1,10.1-6.6c0.1-0.2,0.5-0.5,0.8-0.5
		c2,0,4,0,6.1,0c-0.7,3-2,5.6-4.1,7.8c-2.8,3-6.3,4.6-10.3,5c-5.1,0.6-10.1,0-14.4-3.1c-5.4-3.8-7.9-9.1-8.2-15.6
		c-0.3-7.5,2-13.8,8.3-18.2c7.1-5,18.6-4.1,24.5,1.9C222.1,57.6,223.3,60.1,224.2,63.1z"/>
	<path class="st0" d="M365.9,77.6c-1.6,7.2-6.5,11.7-14.1,12.8c-8,1.2-14.8-1.1-19.6-8c-3-4.3-3.7-9.3-3.2-14.4
		c0.6-6.4,3.5-11.5,9-14.9c7.2-4.5,18.1-3.4,23.7,2.4c2,2.1,3.3,4.6,4.2,7.6c-2.2,0-4.4,0-6.5,0c-0.2,0-0.6-0.4-0.7-0.6
		c-1.8-4.2-5.2-5.8-9.5-6.1c-8.3-0.5-13.1,5.6-13.6,12.7c-0.3,4.8,0.8,9.1,4.3,12.6c4.6,4.6,14.9,4.4,18.4-1.8
		c0-0.1,0.1-0.1,0.1-0.2c0.4-2,1.8-2.2,3.6-2C363.2,77.7,364.5,77.6,365.9,77.6z"/>
	<path class="st4" d="M426.8,63.1c-2.2,0-4.3,0-6.3,0c-0.2,0-0.6-0.2-0.7-0.5c-4.8-8.4-16.1-8.6-21.2-0.2c-3,4.8-3.2,14,2.3,19.3
		c4.8,4.6,15.2,4.4,18.5-2.1c0.3-0.6,0.5-1.1,0.9-1.8c2.1,0,4.3,0,6.7,0c-0.6,2.5-1.6,4.7-3.2,6.7c-2.8,3.7-6.7,5.5-11.2,6
		c-8.2,0.9-15.2-1.4-20-9.2c-2.2-3.6-2.9-7.7-2.7-11.8c0.3-7.4,3.5-13.5,10.2-16.9c7-3.6,14.1-3.2,20.7,1.2
		C423.9,55.9,425.7,59.2,426.8,63.1z"/>
	<path class="st5" d="M115.7,84.8c-1.1,0.5-2.2,0.8-3.5,0.4c-1.6-0.6-2.3-1.7-2.3-4.1c-1.3,1.4-2.7,2-4.5,1.3c-1.3-0.5-2-1.6-2.3-3
		c-0.8,1.4-1.9,2.4-3.5,2.4c-1.6,0-2.8-0.9-3.5-2.4c-1.2,3.6-4,4.4-6.8,1.8c0.1,1.6-0.3,3-1.8,3.8c-1.4,0.8-2.8,0.6-4.2-0.3
		c0.4,3.9-1.3,5.7-4.9,5c0.7,1.4,1.1,2.8,0.2,4.2c-0.8,1.3-2.2,1.8-3.7,1.8c2.6,2.8,1.5,6.1-1.9,6.8c3,1.5,3.3,5.1,0,7
		c1.6,0.3,2.7,1,3.1,2.5c0.4,1.5,0,2.8-1.2,4c2.3,0.3,4,1.1,4.2,3.5c0.1,1.6-1,3.1-2.6,3.6c-1.4,0.5-3,0-3.8-1.2
		c-1.2-1.5-1-3,0.5-5.3c-2-0.1-3.5-0.9-4-3c-0.4-1.6,0.3-2.9,1.9-4c-0.7-0.6-1.7-1-2.2-1.8c-0.5-0.7-0.7-1.8-0.6-2.7
		c0.2-1.8,1.4-2.7,3.3-3c-0.6-0.5-1.5-1-1.9-1.8c-0.4-0.7-0.5-1.8-0.4-2.6c0.3-1.9,1.6-2.7,4.1-2.8c-1.5-1.5-2.1-3.2-0.9-5.1
		c1.1-1.6,2.7-1.8,4.1-1.5c-0.1-1.1-0.4-2.3-0.1-3.4c0.6-2.3,2.9-3,5.5-1.9c0.1,0,0.2,0.1,0.3,0.1c0-0.1,0-0.2-0.1-0.3
		c-0.8-3.1,1.8-5.5,4.5-4.7c0.7,0.2,1.4,0.8,2.1,1.2c-0.1-2,0.7-3.6,2.8-4.1c2-0.4,3.4,0.5,4.3,2.3c0.7-2.2,1.8-3.3,3.6-3.4
		c1.9-0.1,3,0.9,3.8,3.3c1-1.8,2.5-2.8,4.5-2.2c1.9,0.5,2.6,2,2.6,4.1c1.6-1.5,3.3-2,5.1-0.8c1.5,1,1.9,2.5,1.5,4.2
		c0,0.1,0,0.2,0,0.3c0.1,0,0.2-0.1,0.3-0.1c2.3-1,4.1-0.6,5.2,1.2c0.8,1.3,0.7,2.9-0.3,4.1c-0.9,1.1-2.5,1.6-3.9,1.1
		c-1.5-0.5-2.5-1.8-2.5-3.3c0-0.5,0.1-0.9,0.2-1.4c0-0.1,0-0.2,0-0.3C115.8,84.7,115.7,84.8,115.7,84.8z"/>
	<path class="st1" d="M15.6,63.1c0-5.6,4.5-10,10.1-10c5.5,0,10.1,4.6,10.1,10.1c0,5.5-4.6,10.1-10.2,10.2
		C20,73.3,15.6,68.8,15.6,63.1z"/>
	<path class="st1" d="M49.3,45.6c0,5.6-4.5,10-10.2,10c-5.5,0-10-4.6-10-10.1c0-5.6,4.5-10,10.2-10C44.9,35.5,49.3,39.9,49.3,45.6z"
		/>
	<path class="st1" d="M15.6,148.6c0-5.8,4.3-10.1,10-10.1c5.7,0,10.2,4.5,10.2,10.1c0,5.5-4.5,10-10.1,10.1
		C20.1,158.7,15.6,154.2,15.6,148.6z"/>
	<path class="st1" d="M142.1,42c-5.7-0.1-10-4.6-9.8-10.3c0.1-5.5,4.7-9.9,10.2-9.9c5.6,0.1,10.1,4.8,10,10.5
		C152.3,37.8,147.6,42.1,142.1,42z"/>
	<path class="st1" d="M159.5,176.2c-5.3-0.1-9.9-4.7-9.6-10.3c0.3-5.9,5-10.1,10.6-9.7c5.8,0.4,10.1,5.3,9.6,10.8
		C169.7,172.5,164.9,176.6,159.5,176.2z"/>
	<path class="st1" d="M57,42c-5.6,0-10.2-4.3-10.2-9.9c0-5.7,4.5-10.3,10.1-10.3c5.4,0,10,4.5,10.1,10C67,37.5,62.7,42,57,42z"/>
	<path class="st1" d="M39.1,176.3c-5.6,0-10.1-4.6-10.1-10.2c0-5.6,4.6-10,10.3-9.9c5.6,0.1,10,4.5,9.9,10.1
		C49.2,171.9,44.7,176.3,39.1,176.3z"/>
	<path class="st1" d="M111.6,188.3c0-5.7,4.4-10,10.1-10c5.6,0,10,4.4,10,10.1c0,5.4-4.6,10-10,10
		C116.2,198.4,111.6,193.8,111.6,188.3z"/>
	<path class="st1" d="M77.6,178.3c5.6,0,10,4.4,10,10c0,5.5-4.7,10.2-10.2,10.1c-5.5-0.1-10.1-4.7-10-10.1
		C67.5,182.7,71.9,178.3,77.6,178.3z"/>
	<path class="st6" d="M88.2,120.9c2.4-0.8,3.8,0,4,2.2c1-0.1,2.1-0.6,3.1-0.4c0.7,0.2,1.3,1.1,2,1.6c1.6-1.7,2.9-1.7,4.6-0.1
		c0.8-0.6,1.4-1.4,2.3-1.6c0.8-0.2,1.8,0.3,2.7,0.4c0.4-0.6,0.7-1.6,1.4-2.1c0.7-0.5,1.8-0.4,2.6-0.5c0.4-0.8,0.8-1.9,1.5-2.7
		c0.4-0.4,1.4-0.5,2.1-0.4c1.3,0.2,2.2,1.8,1.9,3.1c-0.4,1.7-1.9,2.3-4.2,1.6c0.3,1.4,0,2.6-1.3,3.2c-1.2,0.6-2.3,0.3-3.4-0.8
		c0,1.5-0.5,2.7-1.9,3c-1.3,0.4-2.4-0.2-3.2-1.4c-0.5,1.3-1.3,2.2-2.7,2.1c-1.4,0-2.3-0.8-2.7-2.2c-0.7,1.2-1.7,1.7-3,1.5
		c-1.4-0.3-2-1.4-2.2-2.9c-1.2,1-2.3,1.3-3.6,0.5c-1.1-0.7-1.4-1.8-1-3.1c-1.4,0.6-2.6,0.6-3.6-0.4c-0.9-1-0.9-2.1-0.3-3.3
		c-1.3,0.1-2.6,0-3.2-1.2c-0.7-1.2-0.4-2.4,0.6-3.5c-1.4-0.1-2.5-0.6-2.8-1.9c-0.4-1.4,0.1-2.4,1.4-3.2c-1.4-0.6-2.5-1.4-2.3-3
		c0.2-1.4,1.1-2.1,2.4-2.4c-1.3-0.7-2-1.7-1.6-3.2c0.3-1.4,1.3-1.9,2.7-2.1c-0.8-1.1-1.1-2.3-0.5-3.5c0.7-1.2,1.9-1.3,3.1-1.3
		c-0.5-1.9-0.2-3,0.9-3.7c1-0.6,2.3-0.5,3.1,0.2c0.9,0.7,1.2,2,0.7,3c-0.5,1.2-1.4,1.7-3,1.6c-0.1,1.1,0,2.2-0.5,3.1
		c-0.4,0.7-1.4,1-2.1,1.4c0.1,0.8,0.6,1.8,0.4,2.7c-0.2,0.8-1.2,1.5-1.7,2c0.3,0.7,1.1,1.6,1.1,2.5c0,0.8-0.7,1.7-1.1,2.5
		c0.5,0.5,1.4,1.1,1.6,2c0.2,0.8-0.2,1.9-0.3,2.8c1.9,0.6,3.1,1.6,2.2,4.3c2.7,0.1,3.5,0.9,3.5,3.4c0,0.1-0.1,0.1-0.1,0.2
		C88,120.9,88.1,120.9,88.2,120.9z"/>
	<path class="st2" d="M438.7,89.9c-2.1,0-4.1,0-6.1,0c0-12.9,0-25.8,0-38.8c2.1,0,4.1,0,6.1,0C438.7,64.1,438.7,77,438.7,89.9z"/>
	<path class="st7" d="M230,51.1c2.1,0,4.1,0,6.1,0c0,12.9,0,25.8,0,38.8c-2,0-4.1,0-6.1,0C230,77,230,64.1,230,51.1z"/>
	<path class="st8" d="M65.2,91.6c-2.5-2.1-3.1-4.3-1.8-6.5c1.1-2,3-2.8,5.3-2.3c0.3,0.1,0.6,0.1,0.8,0.2c-0.3-1.1-0.8-2.2-0.8-3.3
		c-0.1-3.6,3.7-5.8,6.9-4.1c0.3,0.2,0.6,0.4,0.9,0.5c0.1,0.1,0.1,0.2,0.2,0.4c0.1,0,0.1,0,0.2-0.1c-0.1-0.2-0.1-0.3-0.2-0.5
		c-0.5-1.6-0.6-3.1,0.3-4.6c1.7-2.8,5.9-3,7.9-0.3c0.2,0.3,0.4,0.6,0.6,0.9l0,0c0.1,0.2,0.2,0.3,0.3,0.5l0,0c0.2,1.6,0.2,3.2-1,4.5
		c-1.7,2-4.1,2.2-6.9,0.5c-0.1,0-0.2-0.1-0.2-0.1c0,0.1,0.1,0.2,0.1,0.3c0.8,2,0.7,3.8-0.8,5.4c-1.5,1.6-3.5,1.7-5.5,1.1
		c-0.2,0-0.3-0.1-0.5-0.1c0.1,0.1,0.2,0.2,0.2,0.3c1.3,1.8,1.5,3.7,0.3,5.7c-1.2,2-3.1,2.4-5.3,2l0,0C65.8,91.8,65.5,91.7,65.2,91.6
		L65.2,91.6z"/>
	<path class="st1" d="M42.9,81.3c-4.5,0-8.1-3.6-8.1-8.2c0-4.5,3.6-8.1,8.1-8.1c4.5,0,8.2,3.7,8.2,8.3
		C51.1,77.7,47.4,81.3,42.9,81.3z"/>
	<path class="st1" d="M34.8,138.6c0-4.6,3.6-8.2,8-8.2c4.6,0,8.3,3.7,8.3,8.2c0,4.5-3.6,8.2-8.1,8.1
		C38.4,146.7,34.8,143.1,34.8,138.6z"/>
	<path class="st1" d="M28.3,122.8c0-4.5,3.6-8.1,8.1-8.1c4.5,0,8.1,3.6,8.2,8.1c0,4.4-3.7,8.2-8.2,8.2
		C31.9,131,28.3,127.4,28.3,122.8z"/>
	<path class="st1" d="M99.7,163.1c4.5,0,8.1,3.7,8.1,8.2c-0.1,4.5-3.9,8.2-8.2,8.1c-4.5-0.1-8.1-3.8-8.1-8.4
		C91.5,166.6,95.1,163.1,99.7,163.1z"/>
	<path class="st1" d="M28.3,88.9c0-4.6,3.5-8.2,8-8.2c4.6,0,8.3,3.6,8.3,8.1c0,4.5-3.7,8.2-8.2,8.2C31.9,97.1,28.3,93.5,28.3,88.9z"
		/>
	<path class="st1" d="M140.5,162.5c0,4.6-3.6,8.1-8.1,8.1c-4.5,0-8.2-3.6-8.2-8.1c0-4.5,3.6-8.1,8.1-8.2
		C136.9,154.3,140.4,157.8,140.5,162.5z"/>
	<path class="st1" d="M82.7,177.1c-4.5,0-8.2-3.6-8.2-8.1c0-4.5,3.6-8.2,8-8.2c4.6,0,8.3,3.6,8.3,8.1
		C90.9,173.5,87.2,177.1,82.7,177.1z"/>
	<path class="st1" d="M82.7,50.8c-4.5,0-8.2-3.7-8.1-8.2c0-4.5,3.7-8.1,8.2-8.1c4.5,0,8.2,3.7,8.2,8.2
		C90.8,47.2,87.2,50.8,82.7,50.8z"/>
	<path class="st1" d="M116.5,50.8c-4.5,0-8.2-3.7-8.2-8.1c0-4.5,3.6-8.2,8.2-8.2c4.5,0,8.2,3.7,8.2,8.1
		C124.7,47.2,121,50.8,116.5,50.8z"/>
	<path class="st1" d="M67,154.4c4.5,0,8.1,3.7,8.1,8.2c0,4.5-3.7,8.1-8.2,8.1c-4.5,0-8.2-3.7-8.1-8.1
		C58.7,157.8,62.3,154.3,67,154.4z"/>
	<path class="st1" d="M45.1,59.6c0-4.5,3.6-8.1,8.2-8.1c4.5,0,8.1,3.6,8.1,8.2c0,4.5-3.6,8.1-8.2,8.1C48.7,67.8,45.1,64.1,45.1,59.6
		z"/>
	<path class="st1" d="M137.8,59.6c0-4.5,3.6-8.1,8.2-8.1c4.5,0,8.1,3.7,8.1,8.2c0,4.5-3.7,8.1-8.2,8.1
		C141.4,67.8,137.8,64.1,137.8,59.6z"/>
	<path class="st1" d="M91.5,40.4c0-4.5,3.7-8.1,8.2-8.1c4.5,0,8.1,3.7,8.1,8.2c0,4.4-3.7,8.1-8.1,8.1C95.1,48.6,91.4,44.9,91.5,40.4
		z"/>
	<path class="st1" d="M34.2,97.7c4.5,0,8.1,3.6,8.1,8.1c0,4.5-3.7,8.2-8.2,8.1c-4.5-0.1-8.2-3.7-8.2-8.2
		C26,101.3,29.6,97.7,34.2,97.7z"/>
	<path class="st9" d="M89.4,130.5c2.9-2.4,5.7-1.7,6.7,1.9c1.5-3,5.3-3.3,7,0c0.3-1.6,1.1-2.7,2.7-3.2c1.6-0.5,2.9,0.1,3.9,1.2
		c0.3-0.9,0.4-2,1-2.7c0.5-0.7,1.5-1.2,2.4-1.4c1.6-0.4,3.3,0.7,3.9,2.1c0.6,1.5,0.1,3.3-1.2,4.2c-1.6,1.2-3.2,1-5.3-0.6
		c0,2.1-0.8,3.7-3,4.1c-1.9,0.3-3.2-0.6-4-2.1c-0.5,0.7-0.8,1.7-1.5,2.2c-0.7,0.5-1.6,0.9-2.5,0.9c-1.7,0-2.8-1.2-3.4-3.3
		c-1.4,2.1-2.9,2.8-4.7,2.2c-1.6-0.5-2.4-1.9-2.5-3.9c-0.9,0.4-1.7,1.1-2.7,1.2c-0.9,0.1-2-0.3-2.8-0.8c-1.3-0.8-1.6-2.7-1-4.2
		c0.6-1.4,2.4-2.3,4-2C88.2,126.6,89.1,127.9,89.4,130.5z"/>
	<path class="st4" d="M372.1,148.7c0-6.4,0-12.7,0-19c0.8,0,1.5,0,2.2,0c0,7.8,0,15.6,0,23.3c-1.4,0.4-2.3-0.1-3.1-1.3
		c-4-5.9-8.1-11.7-12.2-17.5c0-0.1-0.1-0.1-0.3-0.2c0,6.4,0,12.7,0,19.1c-0.8,0-1.5,0-2.2,0c0-7.8,0-15.6,0-23.4
		c1.4-0.4,2.3,0.1,3.2,1.3c4,5.8,8.1,11.6,12.1,17.4C371.8,148.5,371.9,148.6,372.1,148.7z"/>
	<path class="st1" d="M145.9,159.2c-4,0-7.2-3.2-7.1-7.1c0-3.9,3.3-7.2,7.1-7.2c4,0,7.2,3.3,7.2,7.2
		C153.1,156,149.9,159.2,145.9,159.2z"/>
	<path class="st10" d="M341.1,109.1c0.6,6.6-4.3,12.3-10.8,12.8c-6.9,0.5-12.4-4-13-10.9c-0.6-7.3,3.9-12.8,10.9-13.3
		C336.5,97,341.1,103.3,341.1,109.1z M319.7,109.7c0,6.5,5.2,11.2,11.2,10c4-0.8,6.5-3.2,7.5-7c1-4.1,0.3-7.9-3-10.8
		c-3-2.6-6.5-3-10.1-1.3C321.4,102.3,319.7,105.5,319.7,109.7z"/>
	<path class="st11" d="M427.2,120.5c-2.5-1.9-2.6-4.1-0.2-6.7c-0.9-1.4-1.1-3-0.9-4.6c0.5-2.9,2.8-4.8,5.8-4.8
		c2.9,0,5.8,0.3,8.7,0.5c0,0.5,0,1,0,1.7c-0.9,0-1.9,0-3,0c1.4,3.1,1.7,6-1.1,8.3c-2.5,2.1-5.4,1.8-8.3,0.4
		c-0.7,0.6-1.1,1.4-0.8,2.3c0.3,1,1,1.4,2,1.4c1.6,0.1,3.2,0.1,4.8,0.1c3.3,0,5.1,1.2,5.4,3.7c0.4,3.2-1.1,5.4-4.4,6
		c-2.3,0.5-4.6,0.4-6.8-0.6c-2.1-0.9-3.2-3.1-2.6-5.3C426.1,122.1,426.7,121.3,427.2,120.5z M432.4,114.3c2.5,0,4.2-1.7,4.2-4.1
		c0-2.4-1.8-4.1-4.2-4c-2.5,0-4.1,1.6-4.1,4C428.2,112.7,429.9,114.3,432.4,114.3z M432.7,121C432.7,121,432.7,121.1,432.7,121
		c-0.7,0.1-1.4,0-2.2,0.1c-1.2,0.1-2.1,0.7-2.5,1.9c-0.3,1.2,0,2.2,0.9,3c1.6,1.3,5.8,1.4,7.4,0.2c1.1-0.8,1.4-2,1.1-3.2
		c-0.2-1.2-1.1-1.7-2.2-1.9C434.4,121.1,433.6,121.1,432.7,121z"/>
	<path class="st2" d="M189.6,152.9c0-7.6,0-15.4,0-23c2.8,0,5.6-0.3,8.3,0.1c4.2,0.6,6.3,5.2,4.2,8.8c-0.4,0.7-1.1,1.3-1.6,1.9
		c0.8,0.6,1.7,1,2.3,1.7c1.7,1.8,2,4,1.2,6.4c-0.7,2.4-2.6,3.9-5,4.1C196,153.1,192.8,152.9,189.6,152.9z M191.9,151.1
		c2.3-0.1,4.6-0.1,6.8-0.4c2.1-0.3,3.4-2,3.5-4c0.1-2-1-3.8-3-4.2c-2.4-0.4-4.8-0.4-7.2-0.5C191.9,145.1,191.9,148,191.9,151.1z
		 M191.9,131.6c0,2.9,0,5.6,0,8.3c1.6,0,3.2,0.1,4.7,0c2.4-0.2,3.9-1.7,4-3.8c0.1-2-1.1-3.7-3.2-4.1
		C195.6,131.7,193.7,131.7,191.9,131.6z"/>
	<path class="st2" d="M235.2,136.3c0.7,0,1.3,0,1.9,0c0.1,0.6,0.1,1.2,0.2,2c1.4-1.7,3-2.5,5.1-2.4c2.1,0.1,3.6,1.2,4.6,3.1
		c0.3-0.4,0.6-0.8,0.9-1.2c1.6-1.8,3.6-2.4,6-1.8c2.2,0.6,3.3,2.3,3.7,4.4c0.1,0.6,0.1,1.2,0.1,1.8c0,3.6,0,7.2,0,10.8
		c-0.7,0-1.4,0-2.2,0c0-0.4,0-0.8,0-1.1c0-3,0-6,0-9c0-0.4,0-0.8-0.1-1.2c-0.2-2.1-1.2-3.4-2.9-3.7c-1.9-0.3-3.8,0.7-4.5,2.6
		c-0.4,1-0.5,2.1-0.5,3.2c-0.1,3.1,0,6.1,0,9.2c-0.7,0-1.4,0-2.1,0c0-0.3-0.1-0.7-0.1-1c0-3.2,0-6.5,0-9.7c0-2.5-1.1-4.1-3.1-4.3
		c-2.1-0.3-4,1-4.6,3.3c-0.3,1.1-0.3,2.2-0.4,3.3c0,2.8,0,5.6,0,8.4c-0.7,0-1.4,0-2.1,0C235.2,147.5,235.2,142,235.2,136.3z"/>
	<path class="st9" d="M113.7,139.6c0.1,0.6,0.1,1.1,0.2,1.7c0.2,2.3-1.4,4.5-3.6,5c-2.4,0.5-4.7-0.7-5.5-2.9
		c-0.1-0.3-0.2-0.5-0.3-0.9c-0.1,0.6-0.1,1.1-0.2,1.5c-0.5,2.4-2.6,3.9-5,3.8c-2.4-0.2-4.3-2-4.5-4.5c0-0.3-0.1-0.7-0.2-1
		c0-0.2,0-0.4,0-0.6c0.1-0.1,0.4-0.1,0.4-0.2c0.8-2.2,2.4-3.3,4.8-3.3c2.3,0.1,3.8,1.4,4.5,3.8c0.3-2.1,1-3.6,2.7-4.6
		c2-1.1,4.5-0.5,5.9,1.3C113.2,139,113.5,139.3,113.7,139.6C113.7,139.6,113.7,139.6,113.7,139.6z"/>
	<path class="st12" d="M224.9,104.7c0.6,0,1.2,0,1.9,0c0,0.7,0,1.3,0,2c3.1-3.6,8-3.1,9.9,0.7c0.9-1.6,2.3-2.7,4.1-3
		c3.2-0.6,6.1,1.3,6.4,4.7c0.2,2.5,0.1,4.9,0.1,7.4c0,1.6,0,3.3,0,5c-0.7,0-1.4,0-2.2,0c0-0.9,0-1.7,0-2.6c0-2.8,0-5.5,0-8.3
		c-0.1-2.9-1.7-4.5-4.3-4.2c-1.6,0.2-3,1.6-3.5,3.5c-0.2,0.9-0.2,1.8-0.3,2.7c0,2.9,0,5.8,0,8.8c-0.7,0-1.4,0-2.2,0
		c0-2.1,0-4.2,0-6.3c0-1.6,0-3.2,0-4.8c-0.1-2.2-1.2-3.7-2.9-4c-2-0.3-3.7,0.6-4.5,2.7c-0.3,0.9-0.5,1.9-0.5,2.9
		c-0.1,3.1,0,6.2,0,9.4c-0.7,0-1.4,0-2.1,0C224.9,115.9,224.9,110.4,224.9,104.7z"/>
	<path class="st2" d="M199.5,121.5c-0.8,0-1.4,0-2.1,0c0-5.6,0-11.2,0-16.8c0.6,0,1.1,0,1.8,0c0,0.6,0.1,1.2,0.2,2.1
		c1.4-1.8,3.1-2.6,5.1-2.6c2.1,0.1,3.6,1.1,4.5,3.2c0.3-0.3,0.5-0.6,0.7-0.9c1.6-2,4-2.8,6.4-2.1c2,0.6,3.5,2.5,3.5,5
		c0.1,3.9,0,7.9,0,11.9c-0.7,0-1.3,0-2.1,0c0-2.6,0-5.2,0-7.8c0-1.2,0-2.5-0.1-3.7c-0.1-1.9-1.1-3.1-2.5-3.5
		c-1.6-0.4-3.5,0.2-4.3,1.8c-0.6,1.1-1,2.5-1,3.7c-0.1,3.1,0,6.3,0,9.5c-0.7,0-1.3,0-2,0c0-2.5,0-4.9,0-7.3c0-1.4,0-2.8-0.1-4.2
		c-0.1-2-1.2-3.3-2.8-3.6c-1.9-0.3-3.7,0.5-4.4,2.4c-0.4,1.1-0.6,2.2-0.7,3.4C199.4,115.3,199.5,118.3,199.5,121.5z"/>
	<path class="st8" d="M85.5,71.9c0-0.9-0.2-1.8-0.1-2.6c0.3-2.2,2.1-3.8,4.1-3.9c2.6-0.1,4.4,1,5.1,3.4c0.1,0.2,0.1,0.4,0.2,0.8
		c0.4-3.6,2.1-5.5,4.9-5.6c2.2-0.1,4.3,1.6,4.7,3.9c0.4,2.3-1,4.6-3.2,5.4c-2.6,0.9-4.7-0.3-6.3-3.4c-0.1,0.3-0.1,0.4-0.1,0.6
		c-0.3,2.2-1.6,3.6-3.7,4.1c-2.1,0.5-3.8-0.3-5-2.1c-0.1-0.1-0.2-0.2-0.3-0.3c0,0,0,0,0,0C85.6,72.2,85.5,72,85.5,71.9L85.5,71.9z"
		/>
	<path class="st8" d="M113.7,139.6C113.7,139.6,113.7,139.6,113.7,139.6c-0.7-2.3-0.1-4.3,1.8-5.6c1.7-1.2,3.8-1.1,5.8,0.3
		c-0.1-1-0.3-2.1-0.2-3.1c0.3-2.1,2-3.6,4.3-3.9c1.9-0.2,3.9,1,4.8,2.8c0.9,1.9,0.4,3.9-1.2,5.4c-1.5,1.4-3.7,1.6-5.6,0.5
		c-0.2-0.1-0.4-0.3-0.6-0.4c-0.1,0-0.2-0.1-0.3-0.1c0,0.1,0.1,0.2,0.1,0.3c0.1,1,0.3,2,0.2,2.9c-0.4,2.1-2.1,3.5-4.1,3.7
		C116.4,142.8,114.7,141.8,113.7,139.6z"/>
	<path class="st13" d="M426.2,153.1c-0.7,0-1.3,0-2.1,0c-1.5-4.2-3-8.5-4.5-13.1c-0.7,1.9-1.3,3.6-1.9,5.3c-0.7,2-1.4,4-2,6
		c-0.6,1.8-0.6,1.8-2.8,1.8c-1.8-5.5-3.6-11.1-5.5-16.7c2.1-0.6,2.3-0.5,2.9,1.4c1.2,3.8,2.4,7.5,3.5,11.3c0.1,0.2,0.2,0.4,0.3,0.6
		c1.5-4.6,3-9,4.5-13.4c1.5-0.5,2,0.1,2.5,1.4c1.3,3.9,2.6,7.8,4.1,12c0.7-2.2,1.3-4.1,1.9-6c0.6-1.9,1.2-3.9,1.8-5.8
		c0.6-1.9,0.6-1.9,2.8-1.7C429.8,141.9,428,147.5,426.2,153.1z"/>
	<path class="st8" d="M122.7,76c2.6-1.5,4.8-1.4,6.5,0.4c1.6,1.6,1.8,4.1,0.5,5.9c-1.2,1.8-3.7,2.5-5.9,1.7
		c-2.1-0.9-3.2-3.1-2.8-5.3c0.1-0.4,0.2-0.8,0.3-1.4c-1.4,0.8-2.7,1.4-4.3,1.1c-2.7-0.6-4.3-3.1-3.7-5.8c0.6-2.5,3.2-4,5.7-3.4
		c2.5,0.6,4.1,3.1,3.5,5.7c-0.1,0.3-0.2,0.6-0.3,0.9c-0.1,0.1-0.2,0.2-0.3,0.4c0,0.1,0,0.2,0.1,0.3c0.1-0.1,0.1-0.2,0.2-0.2
		C122.5,76.2,122.6,76.1,122.7,76z"/>
	<path class="st8" d="M71.1,127.8c1.1-0.1,2.2-0.4,3.3-0.3c3.1,0.5,4.7,3.7,3.2,6.9c2.2-1.2,4.2-1.8,6.3-0.4
		c1.8,1.3,2.4,3.1,1.7,5.7c0,0,0,0,0,0c-0.1,0.2-0.2,0.5-0.3,0.7c0,0,0,0,0,0c-1.4,1.7-3.1,2.6-5.3,2.1c-2.9-0.7-4.2-3.6-3.1-6.7
		c0-0.1,0-0.2,0-0.3c-0.1,0-0.1,0.1-0.2,0.1c-0.7,0.3-1.3,0.8-2,1c-1.9,0.5-3.9-0.2-5-1.8c-1.1-1.6-1.2-3.6-0.2-5.3
		c0.2-0.3,0.3-0.5,0.5-0.8c0,0,0,0,0,0c0.1-0.1,0.3-0.2,0.4-0.3c0,0,0.1-0.1,0.1-0.1c0.2-0.1,0.3-0.3,0.5-0.4l0,0
		C70.9,127.9,71,127.8,71.1,127.8L71.1,127.8z"/>
	<path class="st8" d="M122.9,12.4c3.6,0,6.5,2.9,6.5,6.6c0,3.5-2.9,6.4-6.5,6.5c-3.5,0.1-6.6-3-6.7-6.5
		C116.2,15.4,119.2,12.4,122.9,12.4z"/>
	<path class="st1" d="M93.3,155.1c0-3.5,2.8-6.3,6.3-6.3c3.5,0,6.3,2.9,6.3,6.4c0,3.4-2.8,6.2-6.3,6.2
		C96.1,161.4,93.3,158.7,93.3,155.1z"/>
	<path class="st14" d="M69.6,144.7c-1.7,1.7-3.7,2.5-6.1,2.1c-4.8-0.9-6.8-6.5-3.6-10.2c0.2-0.2,0.4-0.5,0.6-0.7l0,0
		c0.1-0.1,0.2-0.2,0.3-0.3l0,0c0.1-0.1,0.2-0.2,0.3-0.3l0,0c0.2-0.1,0.3-0.2,0.5-0.2l0,0c1.6-0.5,3.1-1,4.8-0.5
		c3.7,1,5.7,4.8,4.3,8.3c-0.1,0.3-0.2,0.7-0.2,1.1c0,0,0,0,0,0c-0.1,0.1-0.2,0.2-0.3,0.3l0,0c-0.1,0.1-0.2,0.2-0.3,0.3c0,0,0,0,0,0
		C69.8,144.6,69.7,144.7,69.6,144.7L69.6,144.7z"/>
	<path class="st14" d="M69.4,66.4c-0.5-1.5-1-2.9-0.6-4.5c0.7-2.8,3-4.8,5.9-5c2.8-0.1,5.4,1.7,6.2,4.3c0.9,2.7-0.1,5.6-2.5,7.1
		c-2.5,1.6-5.4,1.4-7.6-0.5c-0.2-0.2-0.4-0.3-0.6-0.5l0,0c-0.1-0.1-0.2-0.2-0.3-0.3l0,0c-0.1-0.1-0.2-0.2-0.3-0.3l0,0
		C69.5,66.7,69.5,66.5,69.4,66.4L69.4,66.4z"/>
	<path class="st8" d="M56.5,185.6c-3.4,0-6.2-2.8-6.2-6.3c0-3.5,2.9-6.3,6.5-6.2c3.3,0.1,6.1,2.9,6.1,6.3
		C62.8,182.8,60,185.6,56.5,185.6z"/>
	<path class="st14" d="M128.9,67.8c-0.3,0.1-0.6,0.2-0.8,0.4c-2.3,1.6-5,1.7-7.3,0.1c-2.2-1.5-3.2-4-2.6-6.7c0.1-0.3,0.1-0.7,0.2-1
		l0,0c0.1-0.2,0.2-0.3,0.3-0.5l0,0c1.2-1.5,2.6-2.9,4.7-3.2c2.5-0.3,4.5,0.4,6,2.4c1.5,2,1.7,4.1,0.7,6.4c-0.1,0.3-0.2,0.7-0.3,1.1
		l0,0c-0.1,0.1-0.2,0.2-0.3,0.3l0,0c-0.1,0.1-0.2,0.2-0.3,0.3l0,0C129.1,67.5,129,67.7,128.9,67.8L128.9,67.8z"/>
	<path class="st14" d="M93.7,57c-0.1,3.5-3,6.2-6.5,6c-3.4-0.1-6.1-3-6-6.5c0.1-3.5,3-6.2,6.7-6C91.2,50.7,93.8,53.5,93.7,57z"/>
	<path class="st14" d="M128.9,144.1c-0.2-0.7-0.4-1.3-0.5-2c-0.6-3,0.9-5.9,3.6-7.1c2.8-1.2,6.1-0.2,7.7,2.2c1.7,2.6,1.3,6-0.9,8.1
		c-2.2,2-5.6,2.2-8.1,0.4c-0.4-0.3-0.8-0.5-1.1-0.7c0,0,0,0,0,0c-0.1-0.1-0.2-0.2-0.3-0.3l0,0c-0.1-0.2-0.2-0.3-0.2-0.5l0,0
		C129.1,144.2,129,144.1,128.9,144.1L128.9,144.1z"/>
	<path class="st14" d="M129.6,66.9c2-1.8,4.2-2.6,6.8-1.8c3.4,1.1,5.1,4.5,4,7.9c-1.1,3.3-4.6,5-7.9,3.9c-3.3-1.1-5.1-4.6-3.9-8
		c0.1-0.4,0.2-0.8,0.3-1.1c0,0,0,0,0,0c0.1-0.2,0.2-0.3,0.2-0.5c0,0,0,0,0,0c0.1-0.1,0.2-0.2,0.3-0.3l0,0
		C129.5,67,129.5,66.9,129.6,66.9L129.6,66.9z"/>
	<path class="st1" d="M70.1,67.3c0.1,0.4,0.2,0.7,0.3,1.1c1.1,2.6,0.5,5.6-1.6,7.3c-2.1,1.8-5.2,2-7.6,0.5c-2.2-1.4-3.3-4.1-2.7-6.8
		c0.6-2.6,3-4.6,5.8-4.7c1.5-0.1,2.9,0.4,4.2,1.3c0.2,0.2,0.6,0.2,0.8,0.4c0,0,0,0,0,0c0.1,0.2,0.2,0.3,0.2,0.5c0,0,0,0,0,0
		c0.1,0.1,0.2,0.2,0.3,0.3l0,0C69.9,67.2,70,67.3,70.1,67.3L70.1,67.3z"/>
	<path class="st14" d="M70.3,144.1c1.3-0.9,2.7-1.8,4.4-1.8c2.8,0,5.3,1.7,6.2,4.4c0.8,2.6-0.2,5.5-2.5,7c-2.3,1.5-5.3,1.4-7.5-0.4
		c-2.2-1.8-2.9-4.8-1.8-7.4c0.2-0.4,0.3-0.9,0.4-1.3c0,0,0,0,0,0c0.1-0.1,0.2-0.2,0.3-0.3c0,0,0,0,0,0c0.1-0.1,0.2-0.2,0.3-0.3
		c0,0,0,0,0,0C70.2,144.2,70.3,144.1,70.3,144.1C70.4,144,70.3,144.1,70.3,144.1z"/>
	<path class="st14" d="M118.1,150.5c0-0.5,0-1.1,0-1.6c-0.1-2.7,1-4.7,3.4-5.9c2.3-1.2,4.6-0.9,6.7,0.7c0.2,0.2,0.5,0.3,0.7,0.4
		c0,0,0,0,0,0c0.1,0.1,0.2,0.2,0.3,0.3c0,0,0,0,0,0c0.1,0.2,0.2,0.3,0.2,0.5c0,0,0,0,0,0c0.1,0.1,0.2,0.2,0.3,0.3c0,0,0,0,0,0
		c0.3,1.5,0.9,3,0.8,4.5c-0.3,2.8-2.3,4.7-5.1,5.3c-2.5,0.5-5.1-0.8-6.5-3.1c-0.1-0.2-0.3-0.4-0.5-0.7c0,0,0,0,0,0
		C118.3,150.8,118.2,150.7,118.1,150.5L118.1,150.5z"/>
	<path class="st1" d="M118.3,151c0.1,0.9,0.3,1.7,0.3,2.6c0,3.3-2.5,5.9-5.8,6.2c-3.1,0.3-6.2-2.2-6.7-5.3c-0.5-3.1,1.7-6.3,4.8-7
		c2.7-0.6,4.8,0.3,6.5,2.4c0.2,0.3,0.5,0.5,0.7,0.8c0,0,0,0,0,0C118.2,150.7,118.3,150.8,118.3,151L118.3,151z"/>
	<path class="st14" d="M60.5,135.9c-0.3,0.1-0.7,0.1-1,0.3c-2.9,1.3-6.2,0.4-7.9-2.3c-1.7-2.7-1.3-6.1,1.1-8.1c2.4-2,6-2,8.3,0.1
		c2.3,2,2.7,5.6,0.9,8.2c-0.2,0.3-0.4,0.8-0.6,1.1c0,0,0,0,0,0c-0.2,0.1-0.3,0.2-0.5,0.2c0,0,0,0,0,0c-0.1,0.1-0.2,0.2-0.3,0.3
		c0,0,0,0,0,0C60.7,135.7,60.6,135.8,60.5,135.9L60.5,135.9z"/>
	<path class="st14" d="M118.4,60.6c-1.1,1.8-2.5,3.3-4.7,3.7c-3.5,0.7-6.9-1.6-7.5-5.3c-0.6-3.5,2.1-6.8,5.7-7.1
		c3.6-0.3,6.7,2.5,6.8,6c0,0.7,0,1.4,0,2.1c0,0,0,0,0,0C118.5,60.3,118.4,60.5,118.4,60.6L118.4,60.6z"/>
	<path class="st8" d="M29.8,31.8c0,3.4-2.9,6.3-6.2,6.3c-3.4,0-6.2-2.9-6.2-6.3c0-3.4,2.8-6.3,6.2-6.3
		C27.1,25.5,29.8,28.3,29.8,31.8z"/>
	<path class="st14" d="M58.2,118.6c0,3.6-2.7,6.3-6.3,6.2c-3.4,0-6.2-2.9-6.2-6.2c0.1-3.5,2.9-6.3,6.4-6.2
		C55.5,112.4,58.2,115.1,58.2,118.6z"/>
	<path class="st1" d="M58.1,93.1c0,3.4-2.7,6.2-6.1,6.2c-3.5,0-6.4-2.8-6.4-6.4c0-3.3,2.9-6.2,6.2-6.1
		C55.5,86.9,58.1,89.5,58.1,93.1z"/>
	<path class="st14" d="M50.3,99.7c3.5,0,6.2,2.7,6.2,6.2c0,3.4-2.8,6.2-6.2,6.2c-3.4,0-6.3-2.9-6.3-6.2
		C44,102.4,46.8,99.7,50.3,99.7z"/>
	<path class="st14" d="M165.1,45.6c0,3.4-2.6,6.1-6,6.1c-3.4,0-6.2-2.7-6.2-6c0-3.3,2.8-6.1,6.1-6.1
		C162.4,39.5,165.1,42.3,165.1,45.6z"/>
	<path class="st10" d="M393.9,145.5c-2.2,0-4.4,0-6.6,0c-2.2,0-4.4,0-6.6,0c-0.1,2.5,1.4,4.7,3.6,5.6c2.4,0.9,5.4,0.2,6.5-1.6
		c0.7-1.3,1.6-1.2,2.7-1c-0.7,2.8-3.1,4.7-6.1,5c-6.2,0.6-9.4-3.8-9.2-9.1c0-1.2,0.3-2.5,0.7-3.6c1.4-3.5,4.8-5.3,8.6-4.8
		c3.6,0.5,5.9,3.1,6.2,7.1C394,143.8,393.9,144.6,393.9,145.5z M391.8,143.5c0-2.2-0.8-4-2.8-5c-2-1-4.1-0.9-6,0.4
		c-1.5,1.1-2.2,2.7-2.3,4.6C384.5,143.5,388.1,143.5,391.8,143.5z"/>
	<path class="st10" d="M319.3,145.5c-4.4,0-8.8,0-13.1,0c-0.2,2.5,1.5,4.9,3.8,5.7c2.6,0.9,5.4,0,6.6-2.1c0.7-1.2,1.7-0.5,2.5-0.7
		c-0.5,2.8-3.1,4.8-6.1,5.1c-6.1,0.7-10.1-4.1-9.1-10.6c0.8-5.2,4.8-7.9,9.9-6.7c1.9,0.4,3.4,1.5,4.4,3.3
		C319.2,141,319.6,143.4,319.3,145.5z M306.1,143.5c3.7,0,7.4,0,11,0c0.1-3.2-1.8-5.3-4.9-5.6C309,137.7,306.6,139.8,306.1,143.5z"
		/>
	<path class="st14" d="M76.1,16.5c3.3,0,6.1,2.7,6.1,6c0,3.3-2.7,6-6,6c-3.4,0-6-2.6-6.1-5.9C70.1,19.2,72.8,16.5,76.1,16.5z"/>
	<path class="st2" d="M477.7,153c-1.9,0.6-2.9-0.2-3.7-1.6c-1.3-2.2-2.8-4.2-4.2-6.3c-3.3,1.9-2.4,5.1-2.6,8c-0.7,0-1.4,0-2.1,0
		c0-8.1,0-16.2,0-24.4c0.7,0,1.3,0,2.1,0c0,5.2,0,10.3,0,15.5c0.1,0,0.2,0.1,0.3,0.1c1.8-2.2,3.7-4.3,5.4-6.6c1-1.3,2.1-1.7,3.8-1.3
		c-1.9,2.3-3.7,4.5-5.5,6.8C473.4,146.5,475.5,149.7,477.7,153z"/>
	<path class="st6" d="M96.9,85.3c0.5-1.3,1.4-2.1,2.8-2.1c1.3,0,2.1,0.8,2.6,2.2c0.9-1.1,2-1.9,3.4-1.3c1.2,0.5,1.7,1.5,1.7,2.9
		c1.1-1,2.3-1.4,3.6-0.6c1.2,0.7,1.4,1.8,1.1,3.1c0.7-0.1,1.5-0.3,2.1-0.2c0.6,0.1,1.3,0.5,1.7,1c0.8,0.9,0.7,2,0.1,3
		c-0.6,1-1.8,1.3-3,1c-1.3-0.4-1.8-1.3-1.9-3.1c-1-0.1-2,0-2.8-0.4c-0.7-0.4-1.1-1.4-1.6-2.1c-0.6,0.1-1.6,0.6-2.5,0.4
		c-0.8-0.2-1.5-1-2.4-1.6c-1.9,1.6-3,1.6-4.8-0.3c-0.8,1.6-1.8,2.2-3.1,2c-1.2-0.2-2.1-1.1-2.2-2.2c-0.1-1.2,0.5-2.3,1.7-2.8
		C94.7,83.5,95.7,83.9,96.9,85.3z"/>
	<path class="st13" d="M302.5,113.2c-0.2,3.4-1.3,6.4-4.7,7.9c-3.2,1.5-6.5,1.3-9.3-1.1c-3.2-2.7-3.9-8.5-1.5-12
		c2.3-3.5,7.3-4.7,11.1-2.7C300.9,106.6,302.5,109.6,302.5,113.2z M287.9,113c0,3.6,2.3,6.5,5.6,6.8c3.5,0.3,6.1-1.9,6.7-5.6
		c0.5-3.4-1.2-6.7-4-7.6C291.8,105.2,287.9,108.2,287.9,113z"/>
	<path class="st10" d="M422.9,113.6c-0.2,3-1.3,6.1-4.7,7.5c-3.3,1.4-6.5,1.2-9.3-1.2c-3.4-2.8-3.8-9.5-0.7-13
		c2.8-3.2,8.5-3.6,11.8-0.8C422.1,108,422.9,110.4,422.9,113.6z M408.3,113.1c0,3.1,1.7,5.7,4.4,6.5c4.3,1.4,8.3-2,8-6.8
		c-0.2-3.1-1.7-5.4-4.1-6.1C412.1,105.3,408.3,108.3,408.3,113.1z"/>
	<path class="st13" d="M441.6,153.4c-5.1,0-8.3-3.4-8.3-8.9c0-5.3,3.3-8.7,8.4-8.7c5,0,8.3,3.5,8.3,8.8
		C450,150,446.7,153.4,441.6,153.4z M441.6,151.4c3.6,0,6.2-2.8,6.2-6.8c0-3.8-2.7-6.8-6.3-6.7c-3.7,0-6.2,2.8-6.1,6.8
		C435.4,148.8,437.9,151.4,441.6,151.4z"/>
	<path class="st13" d="M214.5,144.8c0-3.9,1.4-6.8,4.8-8.2c3.2-1.3,6.4-1.1,9.1,1.3c2.8,2.5,3.4,5.9,2.5,9.4c-0.8,3.1-2.7,5.3-6,6
		C218.4,154.6,214.2,149.9,214.5,144.8z M229,144.5c0-0.2,0-0.6-0.1-0.9c-0.3-2.5-1.4-4.4-3.9-5.3c-2.3-0.8-4.5-0.5-6.3,1.2
		c-2.2,2.2-2.8,6-1.3,8.7c0.8,1.5,2.1,2.6,3.8,3C225.7,152.2,229,149.4,229,144.5z"/>
	<path class="st10" d="M387.5,121.9c-5,0-8.3-3.6-8.3-8.8c0-5.2,3.4-8.8,8.4-8.8c4.9,0,8.4,3.6,8.4,8.8
		C396,118.3,392.5,121.9,387.5,121.9z M393.7,113.1c0-3.2-1.5-5.6-4-6.4c-3.4-1.1-6.9,0.6-8,4c-1.2,3.8,0.6,7.9,4,9
		C389.9,120.9,393.7,117.8,393.7,113.1z"/>
	<path class="st10" d="M273.8,153.1c-0.8,0-1.3,0-2.1,0c0-0.7-0.1-1.3-0.1-2.2c-1.5,2-3.4,2.6-5.6,2.5c-2.3-0.1-3.9-1.4-4.4-3.4
		c-0.5-2.4,0.5-4.5,2.7-5.3c1.9-0.7,3.9-1,5.8-1.5c0.5-0.1,0.9-0.2,1.4-0.3c0.5-2.7-0.5-4.6-2.5-5c-2.6-0.5-4.4,0.7-4.9,3.4
		c-0.7,0-1.3,0-2,0c-0.2-2.8,2.1-5.3,5.1-5.6c4.2-0.4,6.5,1.8,6.5,6C273.8,145.6,273.8,149.3,273.8,153.1z M271.6,144.9
		c-2,0.5-4,0.9-5.9,1.5c-1.6,0.5-2.1,1.5-1.9,3c0.2,1.2,1.2,2,2.7,2C269.9,151.5,271.9,148.9,271.6,144.9z"/>
	<path class="st2" d="M292.1,153.1c-0.8,0-1.4,0-2.1,0c0-8.1,0-16.3,0-24.4c0.7,0,1.3,0,2.1,0c0,5.2,0,10.4,0,15.9
		c2.1-2.5,4-4.8,5.9-7c1.3-1.5,1.5-1.6,3.8-1.2c-1.9,2.3-3.7,4.5-5.6,6.8c2.2,3.3,4.3,6.6,6.5,9.9c-1.5,0.3-2.7,0.2-3.5-1.4
		c-1.3-2.3-2.9-4.4-4.4-6.6C291.4,146.9,292.1,150.1,292.1,153.1z"/>
	<path class="st14" d="M99.7,195.3c-3,0-5.5-2.5-5.5-5.5c0-3.1,2.5-5.5,5.6-5.5c3.1,0,5.6,2.5,5.5,5.6
		C105.3,193,102.8,195.4,99.7,195.3z"/>
	<path class="st2" d="M271.8,121.5c-0.8,0-1.4,0-2.1,0c0-5.6,0-11.2,0-16.8c0.6,0,1.2,0,1.9,0c0.1,0.6,0.1,1.1,0.1,1.5
		c1.2-0.6,2.4-1.5,3.7-1.8c3.3-0.8,6.3,1.3,6.5,4.7c0.2,4.1,0,8.1,0,12.3c-0.6,0-1.3,0-2,0c0-0.7,0-1.4,0-2.1c0-3.2,0-6.3-0.1-9.5
		c-0.1-1.9-1.2-3.2-2.8-3.5c-1.8-0.3-3.6,0.4-4.3,2.1c-0.6,1.3-0.9,2.7-0.9,4.1C271.7,115.5,271.8,118.5,271.8,121.5z"/>
	<path class="st10" d="M441.6,104.8c2.2-0.2,2.2-0.2,3,1.7c1.6,3.9,3.1,7.9,4.8,12c1.6-4.1,3.1-8,4.6-12c0.7-1.9,0.7-1.9,3-1.7
		c-3.2,8-6.3,15.9-9.4,23.9c-0.7,0-1.5,0-2.3,0c0.9-2.2,1.8-4.4,2.5-6.6c0.2-0.5,0.2-1.3,0-1.8C445.7,115.1,443.7,110,441.6,104.8z"
		/>
	<path class="st7" d="M386.3,72.9c0,1.8,0,3.5,0,5.2c-5.8,0-11.6,0-17.4,0c0-1.7,0-3.4,0-5.2C374.7,72.9,380.5,72.9,386.3,72.9z"/>
	<path class="st13" d="M347.3,121.5c-0.7,0-1.4,0-2.1,0c0-5.6,0-11.1,0-16.8c0.6,0,1.2,0,1.8,0c0.1,0.6,0.1,1.2,0.2,1.6
		c1.1-0.6,2.2-1.5,3.4-1.9c3.3-1,6.2,0.9,6.7,4.3c0.3,1.8,0.2,3.7,0.2,5.5c0,2.4,0,4.8,0,7.2c-0.7,0-1.4,0-2.2,0c0-0.4,0-0.7,0-1.1
		c0-3,0-5.9,0-8.9c0-0.7-0.1-1.4-0.2-2.1c-0.3-1.4-1.1-2.5-2.5-2.9c-1.5-0.4-2.9,0-4,1.3c-1.1,1.3-1.3,2.9-1.4,4.5c0,2.7,0,5.4,0,8
		C347.3,120.7,347.3,121.1,347.3,121.5z"/>
	<path class="st10" d="M333.4,148.2c0.7,0,1.4,0,2,0c0.9,2.7,2.6,3.7,5.3,3.1c1.2-0.3,2-1,2.1-2.3c0.2-1.3-0.3-2.2-1.6-2.8
		c-1.6-0.7-3.3-1.1-4.8-1.7c-2.5-1.1-3.3-4-1.9-6.3c1.2-1.9,3.8-2.8,6.4-2.1c2.2,0.6,3.5,2.3,3.6,4.8c-0.7,0-1.3,0-2.1,0
		c-0.1-0.4-0.2-0.8-0.3-1.3c-0.5-1.4-1.9-2-3.8-1.6c-1.4,0.3-2.4,1.3-2.2,2.7c0.1,0.7,0.6,1.5,1.2,1.9c0.7,0.5,1.7,0.7,2.6,1
		c0.8,0.3,1.6,0.5,2.4,0.8c2.2,1,3.1,2.5,3,4.7c-0.2,2.1-1.5,3.8-3.8,4.1c-1.6,0.2-3.3,0.1-4.8-0.3
		C334.4,152.3,333.4,150.5,333.4,148.2z"/>
	<path class="st11" d="M376.5,109.4c-1.3,0.3-2.1,0.1-2.9-1.1c-1.7-2.5-6.1-2.7-8.3-0.4c-2.8,2.9-2.6,8.2,0.5,10.7
		c2.6,2.1,6.5,1.5,8.2-1.4c0.7-1.1,1.5-0.4,2.3-0.6c-0.2,2.4-2.4,4.6-5.1,5.1c-7.1,1.3-10.2-4-10.1-9c0.1-3.3,1.3-6.1,4.5-7.6
		c2.7-1.3,5.4-1.1,7.9,0.3C375.1,106.3,376.1,107.6,376.5,109.4z"/>
	<path class="st11" d="M252.1,104.7c0.8,0,1.4,0,2.2,0c0,3.2,0,6.4,0,9.6c0,0.8,0.1,1.6,0.2,2.4c0.3,1.5,1,2.7,2.6,3
		c1.5,0.4,3.3-0.2,4-1.7c0.6-1.1,1-2.5,1-3.7c0.1-2.8,0-5.6,0-8.4c0-0.4,0-0.8,0-1.2c0.7,0,1.4,0,2.1,0c0,5.5,0,11.1,0,16.7
		c-0.6,0-1.2,0-1.9,0c0-0.7,0-1.3,0-2.2c-1.3,1.7-2.8,2.6-4.7,2.6c-3,0-5-1.6-5.3-4.5c-0.3-2.7-0.2-5.3-0.2-8
		C252,107.8,252.1,106.3,252.1,104.7z"/>
	<path class="st9" d="M70.3,128.4C70.3,128.4,70.3,128.4,70.3,128.4c-0.2,0.2-0.4,0.3-0.5,0.4c0,0,0,0,0,0c-0.3,0-0.6,0-0.8,0.1
		c-2.4,0.7-4.6-0.2-5.7-2.4c-1.1-2.1-0.5-4.4,1.4-5.8c0.3-0.2,0.5-0.5,0.7-0.7c0.2-0.1,0.3-0.2,0.5-0.2c0.2,0.1,0.4,0.2,0.6,0.1
		c2.1-0.4,3.8,0.3,4.9,2.1c1.1,1.8,1.1,3.6-0.1,5.4c-0.1,0.2-0.2,0.4-0.3,0.6c0,0,0,0,0,0c-0.1,0.1-0.2,0.2-0.3,0.3c0,0,0,0,0,0
		C70.7,128.1,70.5,128.2,70.3,128.4z"/>
	<path class="st8" d="M66.1,92c1.5,1.2,2.6,2.7,2.4,4.8c-0.2,2.5-2.4,4.4-4.9,4.3c-2.5-0.1-4.5-2.1-4.6-4.6c0-2.5,1.9-4.7,4.3-4.8
		c0.6,0,1.2,0,1.8,0.1c0,0,0,0,0,0C65.5,91.7,65.8,91.8,66.1,92L66.1,92z"/>
	<path class="st8" d="M65.9,119.6c-0.2,0.1-0.3,0.2-0.5,0.2c-2.4,0.9-5-0.2-6-2.6c-1-2.5,0.1-5.2,2.6-6.2c2.3-1,5.1,0.1,6.1,2.5
		C69.2,115.8,68.2,118.5,65.9,119.6z"/>
	<path class="st11" d="M399.1,138.3c-1.2,0-2.2,0-3.3,0c0-0.7,0-1.3,0-2c1.1,0,2.1,0,3.3,0c0-1.4,0-2.8,0-4.2c0.8,0,1.5,0,2.2,0
		c0,1.4,0,2.7,0,4.2c1.5,0,3,0,4.4,0c0,0.7,0,1.3,0,2c-1.5,0-2.9,0-4.5,0c0,3.9,0,7.6,0,11.3c0,1.1,0.7,1.7,1.8,1.7
		c0.8,0,1.7-0.1,2.5-0.1c0.5,1.8,0.2,2.2-1.7,2.2c-3.5,0.1-4.9-1.2-4.9-4.7C399.1,145.2,399.1,141.9,399.1,138.3z"/>
	<path class="st8" d="M94.6,141.6c0,0.2,0,0.4,0,0.6c-0.2,2.5-2.3,4.4-4.8,4.2c-2.5-0.1-4.6-2.3-4.5-4.9c0-0.3,0-0.7,0-1
		c0,0,0,0,0,0c0.1-0.2,0.2-0.5,0.3-0.7c0,0,0,0,0,0c0.6-0.7,1.2-1.5,1.9-2c1.5-1.1,3.2-1.2,4.8-0.3
		C93.8,138.3,94.7,139.6,94.6,141.6z"/>
	<path class="st9" d="M10,164.2c-2.3,0-4.2-1.9-4.2-4.1c0-2.2,1.9-4.1,4.1-4.2c2.3,0,4.2,1.8,4.3,4.1
		C14.2,162.3,12.4,164.2,10,164.2z"/>
	<path class="st7" d="M399.9,97.1c0.7,0,1.3,0,2.1,0c0,8.1,0,16.2,0,24.4c-0.7,0-1.3,0-2.1,0C399.9,113.4,399.9,105.3,399.9,97.1z"
		/>
	<path class="st7" d="M191.8,121.5c-0.7,0-1.4,0-2.1,0c0-7.8,0-15.6,0-23.4c0.7,0,1.4,0,2.1,0C191.8,105.8,191.8,113.6,191.8,121.5z
		"/>
	<path class="st0" d="M326,138.5c1.4-1.5,3-2.4,5.1-2.3c0,0.7,0,1.3,0,2.1c-1.4,0.1-2.8,0.6-3.7,1.8c-1.1,1.4-1.2,3-1.2,4.8
		c0,2.7,0,5.5,0,8.3c-0.7,0-1.4,0-2.1,0c0-5.6,0-11.1,0-16.8c0.6,0,1.2,0,1.9,0C326,137.1,326,137.8,326,138.5z"/>
	<path class="st2" d="M456.2,153.1c-0.7,0-1.3,0-2,0c0-5.6,0-11.1,0-16.7c1.8-0.5,1.8-0.4,2.2,2.2c1.7-2,2.8-2.5,4.9-2.4
		c0,0.7,0,1.3,0,2c-3.5,0.7-5,2.5-5,6.1c0,2.9,0,5.7,0,8.6C456.3,152.9,456.2,153,456.2,153.1z"/>
	<path class="st0" d="M281.2,153.1c-0.7,0-1.3,0-2,0c0-5.6,0-11.1,0-16.8c0.6,0,1.1,0,1.8,0c0.1,0.7,0.1,1.5,0.2,2.5
		c1.3-1.7,2.8-2.7,4.9-2.6c0,0.7,0,1.4,0,2c-3.6,0.8-4.8,2.3-4.8,6.1c0,2.9,0,5.8,0,8.6C281.3,152.9,281.3,152.9,281.2,153.1z"/>
	<path class="st14" d="M6.2,53.4c0-2.1,1.5-3.7,3.6-3.7c2,0,3.5,1.6,3.6,3.6c0,2.1-1.6,3.7-3.6,3.7C7.8,57,6.2,55.4,6.2,53.4z"/>
	<path class="st13" d="M210.4,153.1c-0.7,0-1.3,0-2,0c0-5.6,0-11.2,0-16.8c0.7,0,1.3,0,2,0C210.4,141.9,210.4,147.5,210.4,153.1z"/>
	<path class="st15" d="M304.5,111.8c3.5,0,7,0,10.6,0c0,0.6,0,1.2,0,1.9c-3.5,0-7,0-10.6,0C304.5,113.1,304.5,112.6,304.5,111.8z"/>
	<path class="st13" d="M211.2,131c0,0.9-0.8,1.6-1.7,1.6c-1,0-1.6-0.7-1.6-1.7c0-1,0.7-1.6,1.7-1.6
		C210.5,129.4,211.2,130.1,211.2,131z"/>
	<path class="st16" d="M82.2,83c0,0.1,0,0.2,0.1,0.3c-0.1,0-0.2-0.1-0.3-0.1C82.1,83.2,82.2,83.1,82.2,83z"/>
	<path class="st16" d="M117.2,83.2c-0.1,0-0.2,0.1-0.3,0.1c0-0.1,0-0.2,0-0.3C117.1,83.1,117.1,83.2,117.2,83.2z"/>
	<path class="st16" d="M115.7,84.8c0.1,0,0.2-0.1,0.2-0.1c0,0.1,0,0.2,0,0.3C115.8,84.9,115.7,84.8,115.7,84.8z"/>
	<path class="st16" d="M88.2,120.9c-0.1,0-0.2,0-0.3,0c0-0.1,0.1-0.1,0.1-0.2C88.1,120.8,88.2,120.9,88.2,120.9z"/>
	<path class="st5" d="M66.2,92c-0.3-0.1-0.7-0.2-1-0.4C65.5,91.7,65.8,91.8,66.2,92z"/>
	<path class="st16" d="M71.1,84.3c-0.1-0.1-0.2-0.2-0.2-0.3c0.2,0,0.3,0.1,0.5,0.1C71.3,84.1,71.2,84.2,71.1,84.3z"/>
	<path class="st16" d="M76.7,75.9c0.1,0.2,0.1,0.3,0.2,0.5c-0.1,0-0.1,0-0.2,0.1c-0.1-0.1-0.1-0.2-0.2-0.4
		C76.6,76,76.6,75.9,76.7,75.9z"/>
	<path class="st16" d="M85.5,71.9c0.1,0.2,0.2,0.3,0.3,0.5C85.6,72.2,85.5,72,85.5,71.9z"/>
	<path class="st16" d="M77.7,77.5c0-0.1-0.1-0.2-0.1-0.3c0.1,0,0.2,0.1,0.2,0.1C77.8,77.4,77.7,77.5,77.7,77.5z"/>
	<path class="st16" d="M122.6,136c0-0.1-0.1-0.2-0.1-0.3c0.1,0,0.2,0.1,0.3,0.1C122.7,135.8,122.7,135.9,122.6,136z"/>
	<path class="st8" d="M122.4,76.3c-0.1,0.1-0.1,0.2-0.2,0.2c0-0.1,0-0.2-0.1-0.3C122.3,76.2,122.3,76.2,122.4,76.3z"/>
	<path class="st16" d="M122.4,76.3c-0.1,0-0.2-0.1-0.2-0.1c0.1-0.1,0.2-0.2,0.3-0.4c0.1,0.1,0.1,0.1,0.2,0.2
		C122.6,76.1,122.5,76.2,122.4,76.3z"/>
	<path class="st16" d="M85.5,139.7c-0.1,0.2-0.2,0.5-0.3,0.7C85.3,140.2,85.4,140,85.5,139.7z"/>
	<path class="st16" d="M70.3,128.4c0.2-0.1,0.3-0.3,0.5-0.4C70.7,128.1,70.5,128.2,70.3,128.4z"/>
	<path class="st16" d="M69.9,128.7c0.1-0.1,0.3-0.2,0.4-0.3C70.1,128.5,70,128.6,69.9,128.7z"/>
	<path class="st16" d="M70.8,128c0.1-0.1,0.2-0.2,0.3-0.3C71,127.8,70.9,127.9,70.8,128z"/>
	<path class="st16" d="M76.6,135.6c0.1,0,0.1-0.1,0.2-0.1c0,0.1,0,0.2,0,0.3C76.7,135.7,76.6,135.7,76.6,135.6z"/>
	<path class="st16" d="M61,135.4c0.2-0.1,0.3-0.2,0.5-0.2C61.3,135.3,61.1,135.3,61,135.4z"/>
	<path class="st16" d="M69.9,144.5c-0.1,0.1-0.2,0.2-0.3,0.3C69.7,144.7,69.8,144.6,69.9,144.5z"/>
	<path class="st16" d="M70.1,144.3c-0.1,0.1-0.2,0.2-0.3,0.3C69.9,144.4,70,144.4,70.1,144.3z"/>
	<path class="st16" d="M70.4,144c-0.1,0.1-0.2,0.2-0.3,0.3C70.2,144.2,70.3,144.1,70.4,144z"/>
	<path class="st16" d="M60.7,135.7c0.1-0.1,0.2-0.2,0.3-0.3C60.9,135.5,60.8,135.6,60.7,135.7z"/>
	<path class="st16" d="M60.5,135.9c0.1-0.1,0.2-0.2,0.3-0.3C60.7,135.7,60.6,135.8,60.5,135.9z"/>
	<path class="st16" d="M69.6,66.9c-0.1-0.2-0.2-0.3-0.2-0.5C69.5,66.5,69.5,66.7,69.6,66.9z"/>
	<path class="st16" d="M70.1,67.3c-0.1-0.1-0.2-0.2-0.3-0.3C69.9,67.2,70,67.3,70.1,67.3z"/>
	<path class="st16" d="M69.9,67.1c-0.1-0.1-0.2-0.2-0.3-0.3C69.7,66.9,69.8,67,69.9,67.1z"/>
	<path class="st16" d="M129.1,67.3c-0.1,0.2-0.2,0.3-0.2,0.5C129,67.7,129.1,67.5,129.1,67.3z"/>
	<path class="st16" d="M118.3,60.6c0.1-0.2,0.2-0.3,0.3-0.5C118.5,60.3,118.4,60.5,118.3,60.6z"/>
	<path class="st16" d="M129.6,66.8c-0.1,0.1-0.2,0.2-0.3,0.3C129.5,67,129.5,66.9,129.6,66.8z"/>
	<path class="st16" d="M129.4,67.1c-0.1,0.1-0.2,0.2-0.3,0.3C129.2,67.3,129.3,67.2,129.4,67.1z"/>
	<path class="st16" d="M129.4,144.8c-0.1-0.2-0.2-0.3-0.2-0.5C129.2,144.4,129.3,144.6,129.4,144.8z"/>
	<path class="st16" d="M129.6,145c-0.1-0.1-0.2-0.2-0.3-0.3C129.5,144.8,129.5,144.9,129.6,145z"/>
	<path class="st16" d="M129.2,144.3c-0.1-0.1-0.2-0.2-0.3-0.3C129,144.1,129.1,144.2,129.2,144.3z"/>
	<path class="st16" d="M118.4,151c-0.1-0.2-0.2-0.3-0.3-0.5C118.2,150.7,118.3,150.8,118.4,151z"/>
</g>
</svg>
