<svg xmlns="http://www.w3.org/2000/svg" width="131.2" height="39.599" viewBox="0 0 131.2 39.599"><defs><style>.a{fill:black;}</style></defs><path class="a" d="M47.666,271.607c-.3.535-.566,1.026-.838,1.515Q44.112,278,41.4,282.873q-2.242,4.036-4.469,8.08a.73.73,0,0,1-.714.434q-12.131-.016-24.263-.011H-2.911a4.247,4.247,0,0,1-4.156-3.107,5.427,5.427,0,0,1-.156-1.379q-.015-8.29-.006-16.58,0-6.977,0-13.954a4.439,4.439,0,0,1,.336-1.965,4.137,4.137,0,0,1,3.926-2.553c2.586-.023,5.173,0,7.759,0H36.626a3.469,3.469,0,0,1,.286.389q2.347,4.212,4.685,8.429,2.16,3.893,4.317,7.789c.518.933,1.045,1.861,1.566,2.792C47.546,271.349,47.6,271.473,47.666,271.607Zm-34.423,8.755c.015-.219.035-.38.035-.541q0-3.119,0-6.239,0-5.131,0-10.261c0-.173.04-.36-.107-.5a12.671,12.671,0,0,0-2.842.043c-.01.143-.031.3-.031.462q0,4.9.006,9.81c0,.642,0,1.284,0,1.926a.859.859,0,0,1-.057.214c-.22,0-.267-.164-.339-.288-.109-.19-.194-.394-.31-.578-.59-.938-1.191-1.869-1.781-2.806Q6.252,269.12,4.7,266.631q-1.087-1.74-2.161-3.489a.725.725,0,0,0-.7-.39c-.67.019-1.341,0-2.012.01a3.957,3.957,0,0,0-.46.06c-.017.18-.042.325-.043.471,0,.383,0,.766,0,1.149q0,7.757,0,15.515a2.815,2.815,0,0,0,.046.37,13.521,13.521,0,0,0,2.9-.006,4.825,4.825,0,0,0,.048-.5q0-4.72,0-9.44c0-.779-.027-1.558-.035-2.337a2.015,2.015,0,0,1,.076-.35c.146.2.248.322.329.456.191.316.364.643.559.956q1.916,3.061,3.839,6.119,1.514,2.417,3.016,4.842a.654.654,0,0,0,.64.343c.67-.018,1.341-.006,2.012-.011C12.895,280.4,13.041,280.38,13.243,280.361Zm22.68-17.519a2.635,2.635,0,0,0-.987-.072c-.314-.012-.63-.016-.944,0a1.885,1.885,0,0,0-.959.1,4.13,4.13,0,0,0-.041.423q0,3.181.007,6.361c0,.119-.022.238-.037.392a3.526,3.526,0,0,1-.455.061q-3.531,0-7.061,0a3.972,3.972,0,0,1-.42-.047c-.01-.186-.025-.332-.025-.479q0-3.16,0-6.32a2.666,2.666,0,0,0-.06-.41,14.368,14.368,0,0,0-2.573-.083,2.05,2.05,0,0,0-.329.083q-.021,8.63-.039,17.205a1.073,1.073,0,0,0,.06.256,10.589,10.589,0,0,0,2.548.095,2.516,2.516,0,0,0,.367-.08c.011-.182.027-.329.027-.476q0-3.16,0-6.32a3.66,3.66,0,0,1,.051-.419c.153-.012.272-.029.391-.029q3.531,0,7.061,0a3.961,3.961,0,0,1,.457.055c.013.185.033.331.033.478q0,3.16-.01,6.32a2.99,2.99,0,0,0,.042.371,11.638,11.638,0,0,0,2.89.021,2.018,2.018,0,0,0,.068-.366c.008-.615,0-1.23,0-1.845q0-3.344-.006-6.689-.006-4.063-.018-8.126C35.965,263.153,35.938,263.006,35.923,262.842Zm-16.8,17.474c.015-.152.041-.3.042-.443,0-.575,0-1.149,0-1.724q0-7.429,0-14.859a2.973,2.973,0,0,0-.062-.443,14.939,14.939,0,0,0-2.627-.081,1.864,1.864,0,0,0-.308.081c-.005.24-.015.469-.015.7q0,8.189,0,16.377a3.158,3.158,0,0,0,.05.409A13.17,13.17,0,0,0,19.122,280.316Zm31.528-8.583q-1.415,2.5-2.831,5-2.333,4.125-4.663,8.252-1.673,2.967-3.338,5.938c-.071.127-.179.251-.081.438a2.361,2.361,0,0,0,.264.029c.876,0,1.751,0,2.627,0a4.408,4.408,0,0,0,4.162-2.423q2.856-5.149,5.72-10.295c1.153-2.067,2.321-4.125,3.481-6.187.166-.3.324-.6.484-.893-.051-.109-.085-.2-.132-.28-.379-.665-.767-1.326-1.14-1.995q-1.551-2.776-3.093-5.557c-.686-1.23-1.38-2.456-2.067-3.687q-1.73-3.1-3.459-6.2a3.4,3.4,0,0,0-.431-.6,4.219,4.219,0,0,0-3.264-1.466c-1.012,0-2.025-.016-3.037-.021a.414.414,0,0,0-.134.045c-.014.047-.037.081-.028.1q5.5,9.825,11.009,19.674A.94.94,0,0,1,50.649,271.733Zm52.368-13.373a2.792,2.792,0,0,1,.241.251c.56.742,1.112,1.49,1.674,2.231.5.654,1,1.3,1.5,1.952.11.143.223.287.424.288q.677,0,1.353-.008a.8.8,0,0,0,.224-.1V259.1c0-.643.007-1.285,0-1.928s.032-1.3-.013-1.932a3.689,3.689,0,0,0-1.77.02c0,.285,0,.6,0,.906s0,.629,0,.943,0,.656-.007.984.009.63-.012.943.1.614-.025.918c-.175.008-.233-.108-.306-.2q-.93-1.225-1.86-2.451c-.472-.62-.95-1.236-1.415-1.862a.7.7,0,0,0-.628-.31c-.287.011-.575,0-.861.007a3.476,3.476,0,0,0-.416.066c-.013.208-.034.382-.034.556q0,3.446,0,6.891a2.844,2.844,0,0,0,.064.413,6.854,6.854,0,0,0,1.758-.052v-4.6ZM69.555,288.071c0-1.34-.014-2.68-.018-4.019a2.448,2.448,0,0,1,.055-.348,1.162,1.162,0,0,1,.234.167c.337.448.663.9,1,1.351.749.993,1.507,1.98,2.253,2.976a.643.643,0,0,0,.627.292c.312-.028.628-.007.942-.015.131,0,.261-.027.425-.045.01-.181.024-.327.024-.473q0-3.507,0-7.014a2.822,2.822,0,0,0-.046-.371,4.519,4.519,0,0,0-1.77.041,3.929,3.929,0,0,0-.035.413c.016,1.353.038,2.706.054,4.06a1.7,1.7,0,0,1-.07.318,2.225,2.225,0,0,1-.277-.249c-.668-.883-1.329-1.771-2-2.656q-.641-.852-1.29-1.7a.586.586,0,0,0-.463-.3c-.41,0-.819,0-1.229.012-.061,0-.121.052-.213.094-.011.129-.031.261-.031.394q0,3.507,0,7.014a3.342,3.342,0,0,0,.075.473c.588-.067,1.14.046,1.705-.064A3.45,3.45,0,0,0,69.555,288.071ZM80.72,268.287q-.006,3.509,0,7.018a3.424,3.424,0,0,0,.065.461,6.26,6.26,0,0,0,1.71-.038c.012-.148.031-.268.031-.387-.007-1.341-.019-2.681-.024-4.022a1.488,1.488,0,0,1,.085-.314c.13.139.219.219.29.312q1.408,1.867,2.813,3.738c.14.185.293.361.439.542a.544.544,0,0,0,.466.211c.356-.009.712,0,1.067-.014a2.142,2.142,0,0,0,.382-.083c.015-.136.034-.23.034-.323q0-3.591,0-7.182a2.617,2.617,0,0,0-.056-.37,8.922,8.922,0,0,0-1.714.03,2.679,2.679,0,0,0-.047.347c0,1.381.014,2.763.018,4.145a3.131,3.131,0,0,1-.063.4c-.184-.2-.307-.322-.41-.457-.424-.554-.842-1.113-1.263-1.669q-.929-1.227-1.86-2.452c-.115-.152-.212-.345-.428-.351-.475-.013-.951,0-1.486,0C80.745,268.022,80.721,268.155,80.72,268.287Zm-14.874-6.445c0-.383-.006-.766-.005-1.149s-.007-.794.012-1.19a3.8,3.8,0,0,1,.061-1.138,18.369,18.369,0,0,1,1.238,1.559c.423.519.81,1.068,1.22,1.6a17.237,17.237,0,0,0,1.256,1.563,11.949,11.949,0,0,0,1.718-.053v-7.771a.726.726,0,0,0-.574-.124c-.205,0-.41,0-.616,0-.187,0-.386-.056-.584.154v4.774a2.793,2.793,0,0,1-.3-.27c-.36-.465-.713-.936-1.069-1.4q-1.13-1.487-2.26-2.973a.626.626,0,0,0-.515-.29c-.356,0-.711,0-1.067,0a1.6,1.6,0,0,0-.3.071c-.012.171-.034.331-.034.49q0,3.468,0,6.936a3.916,3.916,0,0,0,.048.424,8.327,8.327,0,0,0,1.762-.02C65.841,262.6,65.846,262.221,65.847,261.842Zm41.682,11.441a3.986,3.986,0,0,0-.056.462c0,.547.011,1.094.014,1.641a3.483,3.483,0,0,1-.035.348,6.743,6.743,0,0,1-1.747.039,3.319,3.319,0,0,1-.056-.419q0-3.53,0-7.06c0-.132.019-.264.031-.427a2.8,2.8,0,0,1,.382-.053c1.081,0,2.162.007,3.243.024a4.167,4.167,0,0,1,1.519.316,1.992,1.992,0,0,1,1.221,1.5,3.732,3.732,0,0,1-.011,1.671,2.021,2.021,0,0,1-1.088,1.461,1.824,1.824,0,0,0-.226.163,1.424,1.424,0,0,0,.119.29q.612.874,1.238,1.738c.088.122.2.229.283.351.076.106.138.223.24.389a1.776,1.776,0,0,1-.347.088c-.492.009-.985,0-1.478.01a.608.608,0,0,1-.546-.3c-.423-.605-.872-1.194-1.271-1.815a.874.874,0,0,0-.92-.458C107.882,273.258,107.722,273.266,107.529,273.283Zm.043-1.647a1.075,1.075,0,0,0,.21.044c.437,0,.874,0,1.311-.013a1.727,1.727,0,0,0,.443-.074,1.08,1.08,0,0,0,.738-1.185.874.874,0,0,0-.817-.963,18.062,18.062,0,0,0-1.835-.021c-.022,0-.044.029-.065.044A5.979,5.979,0,0,0,107.572,271.635Zm-11.852-16.7a3.967,3.967,0,0,1,3.544,2.365,4.1,4.1,0,0,1-2.157,5.566,4.3,4.3,0,0,1-4.869-1.14,3.974,3.974,0,0,1-.922-3.211,3.842,3.842,0,0,1,.753-1.925A4.315,4.315,0,0,1,95.72,254.934Zm2.07,4.2a2.522,2.522,0,0,0-.881-2.061,2.034,2.034,0,0,0-2.141-.427,2.614,2.614,0,0,0-.7,4.434,2.177,2.177,0,0,0,3-.193A2.429,2.429,0,0,0,97.79,259.133Zm.855,16.663q2.524.007,5.047,0a3.058,3.058,0,0,0,.491-.09c-.1-.519.033-1.015-.094-1.524-.155-.013-.275-.032-.4-.032-1.026,0-2.052.009-3.078.009-.158,0-.316-.029-.521-.049a8.892,8.892,0,0,1,.014-1.518,4.843,4.843,0,0,1,.5-.051c.821,0,1.641.016,2.462.023a.573.573,0,0,0,.527-.15,6.985,6.985,0,0,0-.029-1.371c-.161-.012-.293-.031-.425-.031-.848,0-1.7.007-2.544.007-.146,0-.292-.023-.418-.034a2.694,2.694,0,0,1-.007-1.5c.142-.01.3-.032.461-.032.971,0,1.942.006,2.913,0a2.8,2.8,0,0,0,.408-.057,3.723,3.723,0,0,0-.047-1.565c-.119-.007-.253-.021-.387-.021q-2.4,0-4.8,0a2.978,2.978,0,0,0-.371.044c-.107.4-.108,7.523,0,7.895A2.024,2.024,0,0,0,98.645,275.8Zm20.215,9.514a3.4,3.4,0,0,1,.388-.046c.862,0,1.723.009,2.585.008.156,0,.312-.031.486-.049a5.936,5.936,0,0,0,.011-1.464,4.93,4.93,0,0,0-.535-.055c-.807,0-1.614.023-2.421.027a4.551,4.551,0,0,1-.535-.061,6.983,6.983,0,0,1,.04-1.521c.149-.015.268-.038.388-.038.985,0,1.969.006,2.954,0,.157,0,.313-.027.5-.045a6.656,6.656,0,0,0,0-1.513,2.075,2.075,0,0,0-.34-.062c-.424,0-.848.009-1.271.009-1.189,0-2.379,0-3.568,0-.157,0-.314.03-.5.048-.015.16-.037.279-.037.4q0,3.548,0,7.1a2.429,2.429,0,0,0,.066.394,2.513,2.513,0,0,0,.314.043q2.5,0,5-.014a3.947,3.947,0,0,0,.414-.042,2.558,2.558,0,0,0-.05-1.557c-1.262-.014-2.555,0-3.91-.008A9.519,9.519,0,0,1,118.86,285.311ZM77.137,274.087H73.931c-.1.2-.2.388-.285.584-.117.262-.227.527-.336.793-.066.16-.16.308-.34.321-.542.04-1.082-.009-1.578.018a.376.376,0,0,1-.007-.449q.939-2.141,1.877-4.281c.416-.952.824-1.907,1.239-2.86.053-.122.124-.237.2-.374h1.644a2.575,2.575,0,0,1,.478.9c.416.937.813,1.882,1.217,2.824.453,1.055.9,2.111,1.361,3.164.092.212.212.413.308.623a3.352,3.352,0,0,1,.117.376,10.99,10.99,0,0,1-1.8.075C77.588,275.3,77.515,274.614,77.137,274.087Zm-2.483-1.725a5.5,5.5,0,0,0,1.75.031.683.683,0,0,0-.016-.229c-.257-.58-.522-1.155-.82-1.811a16.907,16.907,0,0,0-.731,1.531A2.592,2.592,0,0,0,74.654,272.362Zm6.136-9.367a6.045,6.045,0,0,1-1.851.045c-.1-.194-.217-.419-.324-.65s-.2-.45-.285-.681a.494.494,0,0,0-.534-.35c-.643.009-1.285.006-1.928.007h-.889a4.347,4.347,0,0,0-.249.415c-.155.335-.3.676-.441,1.015a.419.419,0,0,1-.406.289q-.7,0-1.394,0a.647.647,0,0,1-.161-.066,1.49,1.49,0,0,1,.063-.327q1.047-2.428,2.1-4.851.507-1.165,1.018-2.329c.15-.34.239-.39.592-.38.273.008.546,0,.819,0,.147,0,.294.015.474.024.147.3.3.591.428.889q1.319,3.048,2.63,6.1c.065.15.152.291.213.442C80.721,262.721,80.751,262.861,80.79,262.995ZM77.4,259.732a.492.492,0,0,0,.009-.178q-.346-.854-.706-1.7c-.018-.043-.075-.07-.127-.115-.052.044-.108.069-.127.111q-.39.858-.768,1.721c-.019.043.006.1.01.15A6.075,6.075,0,0,0,77.4,259.732ZM117.84,263a5.759,5.759,0,0,1-1.858.024l-.745-1.633h-3.194a3.671,3.671,0,0,0-.236.383c-.146.309-.284.622-.411.939a.53.53,0,0,1-.561.38c-.461-.013-.922,0-1.349,0-.149-.2-.054-.332.005-.467q.787-1.8,1.574-3.607c.523-1.2,1.041-2.41,1.563-3.614a2.186,2.186,0,0,1,.139-.226c.547-.054,1.122-.021,1.715-.018,1.131,2.577,2.246,5.115,3.357,7.654A.5.5,0,0,1,117.84,263Zm-5.1-3.274a4.956,4.956,0,0,0,1.759-.03,3.268,3.268,0,0,0-.4-.965,2.908,2.908,0,0,0-.486-1.03c-.377.571-.511,1.2-.825,1.734A.929.929,0,0,0,112.739,259.724Zm-11.22,21.126c0,1.382,0,2.764.016,4.145a6.343,6.343,0,0,0,.079.939,2.977,2.977,0,0,0,1.749,2.282,3.628,3.628,0,0,0,2.287.277,3.117,3.117,0,0,0,2.668-3c.011-.287.032-.574.034-.861q.013-1.847.016-3.694a2.848,2.848,0,0,0-.03-.316c-.209-.178-.406-.115-.593-.116-.205,0-.41,0-.615,0-.186,0-.386-.065-.579.13-.005.1-.019.233-.019.366,0,1.3.019,2.6,0,3.9a3.112,3.112,0,0,1-.194,1.08,1.481,1.481,0,0,1-2.466.487,1.8,1.8,0,0,1-.514-1.342c-.005-1.368,0-2.737,0-4.1a4.856,4.856,0,0,0-.055-.5c-.523-.007-1-.017-1.473-.014a.9.9,0,0,0-.264.089A1.515,1.515,0,0,0,101.518,280.85Zm-19.214.266a5.2,5.2,0,0,0-1.823-.715,4.022,4.022,0,0,0-2.3.187A2.067,2.067,0,0,0,76.855,282a3.009,3.009,0,0,0-.008,1.425,1.586,1.586,0,0,0,.857,1.143,13.147,13.147,0,0,0,1.246.518c.308.111.641.152.947.268a2.62,2.62,0,0,1,.786.415.556.556,0,0,1-.053.943,1.47,1.47,0,0,1-.6.233,1.679,1.679,0,0,1-.569-.033,3.632,3.632,0,0,1-1.558-.791c-.115-.088-.238-.166-.332-.232-.259.062-.345.245-.461.393s-.217.282-.325.423-.306.248-.261.53a2.12,2.12,0,0,0,.24.211,9.168,9.168,0,0,0,.931.6,4.3,4.3,0,0,0,3.382.326,2.271,2.271,0,0,0,1.661-2.476c-.012-.136-.039-.271-.063-.405a1.727,1.727,0,0,0-.736-1.142,3.974,3.974,0,0,0-1.256-.591c-.4-.109-.8-.206-1.182-.344a2.184,2.184,0,0,1-.676-.366c-.294-.25-.283-.488-.045-.786a.819.819,0,0,1,.638-.315,2.985,2.985,0,0,1,1.9.525c.108.074.23.128.377.209.339-.413.6-.834.921-1.3A3.07,3.07,0,0,0,82.3,281.116Zm13.076-7.61a2.413,2.413,0,0,1-2.365.572,2.2,2.2,0,0,1-1.655-1.986,2.273,2.273,0,0,1,1.1-2.35,2.458,2.458,0,0,1,3.03.331c.106.1.22.19.365.315l1.08-1.2a3.113,3.113,0,0,0-.274-.355,3.919,3.919,0,0,0-2.4-1.147,4.363,4.363,0,0,0-2.52.383,4,4,0,0,0-2.257,3.845,3.777,3.777,0,0,0,1.553,3.118,4.3,4.3,0,0,0,5.72-.5,1.111,1.111,0,0,0,.13-.239l-1.093-1.127C95.627,273.305,95.5,273.4,95.381,273.506Zm-24.592-4.64a4.342,4.342,0,0,0-4.685-.909,3.92,3.92,0,0,0-2.546,3.694,3.794,3.794,0,0,0,.405,1.988,4.045,4.045,0,0,0,3.208,2.2,4.322,4.322,0,0,0,3.686-1.319.71.71,0,0,0,.09-.165c-.128-.377-.525-.533-.736-.845a1.65,1.65,0,0,0-.335-.294.687.687,0,0,0-.166.053,1.987,1.987,0,0,0-.182.164,2.423,2.423,0,0,1-2.459.64,2.461,2.461,0,0,1-1.1-3.886,2.531,2.531,0,0,1,3.545-.168c.126.115.263.218.433.358l1.074-1.193A2.755,2.755,0,0,0,70.789,268.866Zm11.936-11.8c0,.574-.009,1.147-.011,1.721q-.007,1.988-.008,3.976a1.43,1.43,0,0,0,.069.3,11.429,11.429,0,0,0,1.723.009c.016-.2.043-.368.043-.538,0-1.777,0-3.553,0-5.33a4.151,4.151,0,0,1,.068-.512h.481c.41,0,.82.006,1.23.006.162,0,.334.021.441-.125v-1.374c-.2-.018-.362-.044-.52-.044q-2.625-.009-5.249-.01c-.157,0-.313.028-.5.046a5.226,5.226,0,0,0,.026,1.479c.143.015.261.038.38.038.438,0,.875-.011,1.312-.011.145,0,.291.018.469.031A3.168,3.168,0,0,1,82.724,257.063Zm4.832,30.967c-.007-1.833-.017-3.666-.022-5.5a3.781,3.781,0,0,1,.056-.459c.171-.009.3-.023.438-.023.424,0,.848.008,1.273,0,.144,0,.287-.029.459-.048a5.819,5.819,0,0,0-.013-1.451,1.871,1.871,0,0,0-.306-.057c-.519,0-1.039,0-1.558,0-1.3,0-2.6,0-3.9.009a4.054,4.054,0,0,0-.463.057,5.05,5.05,0,0,0,.04,1.462c.18.011.328.027.475.028.41,0,.821,0,1.232,0,.132,0,.263.024.423.039.015.167.037.3.037.433,0,1.833-.008,3.666-.007,5.5a2.6,2.6,0,0,0,.069.423h1.728C87.533,288.268,87.556,288.149,87.556,288.03Zm26.451-5.982c.424,0,.847.008,1.271,0,.144,0,.288-.03.461-.049a5.5,5.5,0,0,0,0-1.46,3.736,3.736,0,0,0-.389-.043q-2.727,0-5.453,0a2.983,2.983,0,0,0-.412.065,7.668,7.668,0,0,0,.06,1.449c.156.015.288.038.421.039.437,0,.875-.006,1.312,0,.131,0,.262.024.426.041.014.194.034.353.034.512,0,1.8-.007,3.608-.005,5.412a2.741,2.741,0,0,0,.069.431h1.7c.017-.209.042-.381.042-.553,0-1.763,0-3.526,0-5.289,0-.159.027-.318.046-.528C113.767,282.063,113.887,282.048,114.007,282.048ZM99.879,280.5c-.9,0-1.806.023-2.709.023-.835,0-1.669-.019-2.5-.029a.616.616,0,0,0-.544.15A4.954,4.954,0,0,0,94.148,282c.721.139,1.435-.026,2.172.088.014.157.038.3.038.445,0,1.819,0,3.639,0,5.458a4.094,4.094,0,0,0,.056.465,12.618,12.618,0,0,0,1.689-.025,3.7,3.7,0,0,0,.047-.416c0-1.833-.01-3.666-.01-5.5a2.855,2.855,0,0,1,.063-.427c.729-.113,1.429.044,2.137-.086a5.65,5.65,0,0,0,.033-1.454C100.17,280.529,100.024,280.5,99.879,280.5Zm20.713-19.567c0-1.778,0-3.555,0-5.333a3.109,3.109,0,0,0-.042-.372.933.933,0,0,0-.6-.09c-.191,0-.383,0-.574,0s-.385-.058-.574.121c-.007.095-.023.215-.023.335q0,3.528,0,7.056a2.99,2.99,0,0,0,.058.407h5.063a3.924,3.924,0,0,0-.035-1.589c-.147-.011-.254-.028-.36-.026-.793.009-1.586.026-2.379.03a3.718,3.718,0,0,1-.5-.066C120.616,261.229,120.592,261.083,120.592,260.937ZM91.038,281.012q0,3.489,0,6.978a3.8,3.8,0,0,0,.061.467,9.249,9.249,0,0,0,1.738-.053v-7.861a12.9,12.9,0,0,0-1.447-.04,1.088,1.088,0,0,0-.325.085C91.055,280.746,91.038,280.879,91.038,281.012Zm-27.011-.037q0,3.506,0,7.013a3.753,3.753,0,0,0,.059.459,8.918,8.918,0,0,0,1.756-.04c0-.539.006-1.054.006-1.568s0-1.039,0-1.558,0-1.066,0-1.6.006-1.039-.008-1.558a13.485,13.485,0,0,0-.015-1.52,4.421,4.421,0,0,0-1.764,0A3.74,3.74,0,0,0,64.026,280.975ZM89.81,261.061q0-.985,0-1.969c0-.643.009-1.285,0-1.928s.036-1.3-.02-1.965a9.24,9.24,0,0,0-1.458-.062c-.083-.01-.174.054-.278.089a2.981,2.981,0,0,0-.038.332q0,3.528,0,7.055a2.556,2.556,0,0,0,.062.405,4.541,4.541,0,0,0,1.729-.034C89.81,262.341,89.81,261.7,89.81,261.061Z" transform="translate(7.23 -251.791)"/></svg>