<svg xmlns="http://www.w3.org/2000/svg" width="99.579" height="30.377" viewBox="0 0 99.579 30.377"><defs><style>.a{fill:black;}</style></defs><g transform="translate(1217.443 -310.54)"><path class="a" d="M-1212.6,343.074h-4.844c.034-.6.056-1.123.094-1.645.088-1.229.251-2.456.265-3.685.062-5.641.128-11.283.094-16.924-.013-2.195-.287-4.388-.44-6.582-.011-.162,0-.326,0-.607h.861c1.011,0,2.023.02,3.034,0,2.1-.043,4.21-.179,6.312-.142a10.545,10.545,0,0,1,5.773,1.691,6.923,6.923,0,0,1,3.208,5.1,9.876,9.876,0,0,1-.3,3.783,7.516,7.516,0,0,1-2.56,3.869,10.672,10.672,0,0,1-6.073,2.476,21.293,21.293,0,0,1-5.421-.154,1.353,1.353,0,0,0-.279.029,3.221,3.221,0,0,0-.085.529c0,2.4-.069,4.8.04,7.192a14.742,14.742,0,0,0,.319,3.674A4.882,4.882,0,0,1-1212.6,343.074Zm-.333-15.026a9.19,9.19,0,0,0,1.056.232,19.991,19.991,0,0,0,4.116.034A5.12,5.12,0,0,0-1202.9,324a11.385,11.385,0,0,0-.025-4.534,4.506,4.506,0,0,0-3.56-3.664,12.062,12.062,0,0,0-5.034-.062,1.811,1.811,0,0,0-1.474,1.853c.05,3.217.018,6.434.02,9.652C-1212.968,327.486-1212.947,327.725-1212.932,328.048Z" transform="translate(0 -2.514)"/><path class="a" d="M-1059.392,340.563h-4.964l-3.5-10.319a76.335,76.335,0,0,0-11.014-.006,96.628,96.628,0,0,0-3.825,10.319h-3.708a5.959,5.959,0,0,1,.19-.59c.277-.617.57-1.228.851-1.843.77-1.691,1.534-3.385,2.305-5.075.862-1.891,1.734-3.777,2.591-5.67.348-.77.656-1.557,1-2.328.655-1.452,1.329-2.9,1.986-4.347.319-.7.613-1.417.924-2.123.721-1.637,1.448-3.271,2.167-4.909q.481-1.1.939-2.2c.4-.967.519-1.035,1.653-.849a3.363,3.363,0,0,1,.313.51c.648,1.589,1.276,3.186,1.928,4.773.679,1.654,1.392,3.294,2.067,4.95q1.876,4.6,3.725,9.206c.625,1.547,1.221,3.107,1.875,4.642.805,1.888,1.658,3.756,2.488,5.634A.849.849,0,0,1-1059.392,340.563Zm-13.833-23.348-.162,0-4.58,10.691h9.144C-1070.229,324.23-1071.63,320.682-1073.225,317.215Z" transform="translate(-111.991)"/><path class="a" d="M-865.906,334.516a2,2,0,0,1,.1,2.6,13.021,13.021,0,0,1-5.833,3.765,18.059,18.059,0,0,1-6.816.618,14.018,14.018,0,0,1-5.656-1.688,12.186,12.186,0,0,1-4.589-4.521,15.888,15.888,0,0,1-1.958-5.88,15.265,15.265,0,0,1,.171-5.686,16.478,16.478,0,0,1,2.781-6.321,15.182,15.182,0,0,1,4.747-4.177,15.569,15.569,0,0,1,5.24-1.834,17.342,17.342,0,0,1,2.452-.072,18.763,18.763,0,0,1,4.517.6,19.086,19.086,0,0,1,4.8,1.68c-.063.44-.114.885-.191,1.327-.218,1.256-.445,2.511-.688,3.872l-.522.034c-.476-.663-.882-1.3-1.354-1.873a8.257,8.257,0,0,0-5.6-3.138c-.767-.088-1.54-.125-2.312-.157a7.479,7.479,0,0,0-5.337,2.092,11.425,11.425,0,0,0-3.806,7.52,19.206,19.206,0,0,0,.164,6.357,15.088,15.088,0,0,0,1.779,4.57,10.642,10.642,0,0,0,3.388,3.616,8.034,8.034,0,0,0,5.019,1.318,20.384,20.384,0,0,0,2.792-.405,9.926,9.926,0,0,0,4.344-2.219c.613-.508,1.17-1.083,1.765-1.614A4.552,4.552,0,0,1-865.906,334.516Z" transform="translate(-279.113 -0.663)"/><path class="a" d="M-677.73,344.328h-4.927c.392-4.451.435-8.88.428-13.31-.007-4.411.085-8.825-.321-13.266a22.349,22.349,0,0,0-4.6.08c-1.51.048-3.014.25-4.55.388a.692.692,0,0,1-.1-.244c-.008-.983,0-1.967,0-3.01,7.732.039,15.4.07,23.153-.022v3.312a72.564,72.564,0,0,0-9.239-.6,20.252,20.252,0,0,0-.209,2.022q-.022,10.392,0,20.784a29.3,29.3,0,0,0,.317,2.952C-677.745,343.693-677.746,343.976-677.73,344.328Z" transform="translate(-449.216 -3.766)"/></g></svg>